<svg width="90" height="80" viewBox="0 0 90 80" fill="none" xmlns="http://www.w3.org/2000/svg">
<rect width="90" height="80" rx="12" fill="#FBDD00"/>
<path d="M60.3906 15.3922C61.081 15.3922 61.6406 15.9519 61.6406 16.6422L61.6406 24.1422C61.6406 24.8326 61.081 25.3922 60.3906 25.3922L29.1406 25.3922C28.4503 25.3922 27.8906 24.8326 27.8906 24.1422L27.8906 16.6422C27.8906 15.9519 28.4503 15.3922 29.1406 15.3922L60.3906 15.3922Z" fill="#C52229"/>
<path fill-rule="evenodd" clip-rule="evenodd" d="M62.8906 16.6422L62.8906 24.1422C62.8906 25.5229 61.7713 26.6422 60.3906 26.6422L29.1406 26.6422C27.7599 26.6422 26.6406 25.5229 26.6406 24.1422L26.6406 16.6422C26.6406 15.2615 27.7599 14.1422 29.1406 14.1422L60.3906 14.1422C61.7713 14.1422 62.8906 15.2615 62.8906 16.6422ZM61.6406 16.6422C61.6406 15.9519 61.081 15.3922 60.3906 15.3922L29.1406 15.3922C28.4503 15.3922 27.8906 15.9519 27.8906 16.6422L27.8906 24.1422C27.8906 24.8326 28.4503 25.3922 29.1406 25.3922L60.3906 25.3922C61.081 25.3922 61.6406 24.8326 61.6406 24.1422L61.6406 16.6422Z" fill="#9B0F15"/>
<path fill-rule="evenodd" clip-rule="evenodd" d="M29.0254 16.0172C29.0254 15.672 29.3052 15.3922 29.6504 15.3922H60.2333C60.5785 15.3922 60.8583 15.672 60.8583 16.0172C60.8583 16.3624 60.5785 16.6422 60.2333 16.6422H29.6504C29.3052 16.6422 29.0254 16.3624 29.0254 16.0172Z" fill="#DF3840"/>
<path fill-rule="evenodd" clip-rule="evenodd" d="M28.7891 19.65C28.7891 19.3048 29.0689 19.025 29.4141 19.025H59.997C60.3422 19.025 60.622 19.3048 60.622 19.65C60.622 19.9952 60.3422 20.275 59.997 20.275H29.4141C29.0689 20.275 28.7891 19.9952 28.7891 19.65Z" fill="#AF1B22"/>
<path fill-rule="evenodd" clip-rule="evenodd" d="M28.7891 17.3453C28.7891 17.0002 29.0689 16.7203 29.4141 16.7203H59.997C60.3422 16.7203 60.622 17.0002 60.622 17.3453C60.622 17.6905 60.3422 17.9703 59.997 17.9703H29.4141C29.0689 17.9703 28.7891 17.6905 28.7891 17.3453Z" fill="#AF1B22"/>
<path fill-rule="evenodd" clip-rule="evenodd" d="M28.7891 21.9156C28.7891 21.5705 29.0689 21.2906 29.4141 21.2906H59.997C60.3422 21.2906 60.622 21.5705 60.622 21.9156C60.622 22.2608 60.3422 22.5406 59.997 22.5406H29.4141C29.0689 22.5406 28.7891 22.2608 28.7891 21.9156Z" fill="#AF1B22"/>
<path fill-rule="evenodd" clip-rule="evenodd" d="M29.0254 23.986C29.0254 23.6408 29.3052 23.361 29.6504 23.361H60.2333C60.5785 23.361 60.8583 23.6408 60.8583 23.986C60.8583 24.3311 60.5785 24.611 60.2333 24.611H29.6504C29.3052 24.611 29.0254 24.3311 29.0254 23.986Z" fill="#AF1B22"/>
<path d="M29.8311 15.8839C29.343 15.3957 28.5515 15.3957 28.0634 15.8839L22.7601 21.1872C22.2719 21.6753 22.2719 22.4668 22.7601 22.955L44.0805 44.2754C44.5687 44.7635 45.3601 44.7635 45.8483 44.2754L51.1516 38.9721C51.6397 38.4839 51.6397 37.6925 51.1516 37.2043L29.8311 15.8839Z" fill="#F1333B"/>
<path fill-rule="evenodd" clip-rule="evenodd" d="M27.1795 14.9999L21.8762 20.3032C20.8999 21.2796 20.8999 22.8625 21.8762 23.8388L43.1966 45.1592C44.1729 46.1355 45.7559 46.1355 46.7322 45.1592L52.0355 39.8559C53.0118 38.8796 53.0118 37.2967 52.0355 36.3204L30.715 14.9999C29.7387 14.0236 28.1558 14.0236 27.1795 14.9999ZM28.0634 15.8838C28.5515 15.3957 29.343 15.3957 29.8311 15.8838L51.1516 37.2043C51.6397 37.6924 51.6397 38.4839 51.1516 38.972L45.8483 44.2753C45.3601 44.7635 44.5687 44.7635 44.0805 44.2753L22.7601 22.9549C22.2719 22.4667 22.2719 21.6753 22.7601 21.1871L28.0634 15.8838Z" fill="#9B0F15"/>
<path d="M59.7056 15.9083C60.1917 15.4087 60.9925 15.4032 61.4854 15.8961L66.7886 21.1992C67.272 21.6827 67.2774 22.4648 66.8006 22.9548L46.0809 44.251C45.5948 44.7506 44.794 44.7561 44.3011 44.2632L38.998 38.96C38.5146 38.4766 38.5092 37.6945 38.9859 37.2045L59.7056 15.9083Z" fill="#F1333B"/>
<path fill-rule="evenodd" clip-rule="evenodd" d="M62.3693 15.0122L67.6725 20.3153C68.6393 21.2821 68.6501 22.8464 67.6966 23.8264L46.9769 45.1226C46.0047 46.1218 44.403 46.1328 43.4172 45.147L38.1141 39.8439C37.1473 38.877 37.1365 37.3128 38.09 36.3328L58.8097 15.0366C59.7819 14.0373 61.3835 14.0264 62.3693 15.0122ZM61.4854 15.896C60.9926 15.4031 60.1917 15.4086 59.7056 15.9082L38.9859 37.2044C38.5092 37.6944 38.5146 38.4766 38.998 38.96L44.3011 44.2631C44.794 44.756 45.5948 44.7505 46.0809 44.2509L66.8006 22.9547C67.2774 22.4647 67.272 21.6826 66.7886 21.1992L61.4854 15.896Z" fill="#9B0F15"/>
<path fill-rule="evenodd" clip-rule="evenodd" d="M60.7153 16.4325C60.9605 16.6755 60.9623 17.0712 60.7193 17.3164L47.9459 30.207C47.7029 30.4522 47.3072 30.454 47.062 30.211C46.8168 29.9681 46.815 29.5724 47.058 29.3272L59.8314 16.4365C60.0744 16.1914 60.4701 16.1895 60.7153 16.4325Z" fill="#FE666D"/>
<path fill-rule="evenodd" clip-rule="evenodd" d="M22.9194 21.6689C23.1635 21.4248 23.5592 21.4248 23.8033 21.6689L31.9283 29.7939C32.1723 30.038 32.1723 30.4337 31.9283 30.6778C31.6842 30.9219 31.2885 30.9219 31.0444 30.6778L22.9194 22.5528C22.6753 22.3087 22.6753 21.913 22.9194 21.6689Z" fill="#FE666D"/>
<path d="M63.2572 20.0161C63.0069 20.2664 62.6061 20.2713 62.362 20.0272C62.1178 19.783 62.1228 19.3822 62.373 19.132C62.6233 18.8817 63.0241 18.8768 63.2682 19.1209C63.5124 19.3651 63.5075 19.7659 63.2572 20.0161Z" fill="#DB1B24"/>
<path d="M61.3584 21.5633C61.0471 21.8746 60.5486 21.8808 60.2449 21.5771C59.9412 21.2734 59.9473 20.7748 60.2586 20.4635C60.5699 20.1523 61.0685 20.1461 61.3722 20.4498C61.6759 20.7535 61.6697 21.2521 61.3584 21.5633Z" fill="#DB1B24"/>
<path d="M63.3814 22.0527C63.2257 22.2083 62.9764 22.2114 62.8246 22.0595C62.6727 21.9077 62.6758 21.6584 62.8315 21.5028C62.9871 21.3471 63.2364 21.344 63.3882 21.4959C63.5401 21.6477 63.537 21.897 63.3814 22.0527Z" fill="#DB1B24"/>
<path d="M58.8794 27.3328C58.7238 27.4885 58.4745 27.4915 58.3226 27.3397C58.1708 27.1878 58.1739 26.9386 58.3295 26.7829C58.4852 26.6273 58.7344 26.6242 58.8863 26.776C59.0381 26.9279 59.0351 27.1772 58.8794 27.3328Z" fill="#DB1B24"/>
<path d="M61.1411 23.7449C60.9855 23.9006 60.7362 23.9037 60.5844 23.7518C60.4325 23.6 60.4356 23.3507 60.5912 23.195C60.7469 23.0394 60.9961 23.0363 61.148 23.1882C61.2998 23.34 61.2968 23.5893 61.1411 23.7449Z" fill="#DB1B24"/>
<path d="M58.8735 29.4849C58.7179 29.6406 58.4686 29.6436 58.3168 29.4918C58.1649 29.3399 58.168 29.0907 58.3236 28.935C58.4793 28.7794 58.7286 28.7763 58.8804 28.9281C59.0323 29.08 59.0292 29.3293 58.8735 29.4849Z" fill="#DB1B24"/>
<path d="M59.4439 23.2698C59.2882 23.4255 59.0389 23.4286 58.8871 23.2767C58.7352 23.1249 58.7383 22.8756 58.894 22.7199C59.0496 22.5643 59.2989 22.5612 59.4507 22.7131C59.6026 22.8649 59.5995 23.1142 59.4439 23.2698Z" fill="#DB1B24"/>
<path d="M60.7114 27.7228C60.5558 27.8785 60.3065 27.8816 60.1547 27.7297C60.0028 27.5779 60.0059 27.3286 60.1615 27.1729C60.3172 27.0173 60.5665 27.0142 60.7183 27.1661C60.8702 27.3179 60.8671 27.5672 60.7114 27.7228Z" fill="#DB1B24"/>
<path d="M65.27 21.0661C65.1144 21.2217 64.8651 21.2248 64.7133 21.073C64.5614 20.9211 64.5645 20.6718 64.7201 20.5162C64.8758 20.3606 65.1251 20.3575 65.2769 20.5093C65.4288 20.6612 65.4257 20.9104 65.27 21.0661Z" fill="#DB1B24"/>
<path d="M63.2078 24.3317C62.9545 24.585 62.5488 24.5901 62.3016 24.3429C62.0545 24.0958 62.0595 23.6901 62.3128 23.4368C62.5661 23.1835 62.9718 23.1785 63.219 23.4256C63.4661 23.6727 63.4611 24.0784 63.2078 24.3317Z" fill="#DB1B24"/>
<path d="M65.6238 22.812C65.3705 23.0653 64.9648 23.0703 64.7177 22.8231C64.4705 22.576 64.4755 22.1703 64.7288 21.917C64.9822 21.6637 65.3878 21.6587 65.635 21.9058C65.8821 22.153 65.8771 22.5587 65.6238 22.812Z" fill="#DB1B24"/>
<path d="M60.7312 25.944C60.4779 26.1973 60.0722 26.2024 59.8251 25.9552C59.578 25.7081 59.583 25.3024 59.8363 25.0491C60.0896 24.7958 60.4953 24.7908 60.7424 25.0379C60.9895 25.285 60.9845 25.6907 60.7312 25.944Z" fill="#DB1B24"/>
<path d="M62.4868 26.2193C62.3312 26.3749 62.0819 26.378 61.9301 26.2262C61.7782 26.0743 61.7813 25.825 61.9369 25.6694C62.0926 25.5137 62.3418 25.5107 62.4937 25.6625C62.6455 25.8144 62.6425 26.0636 62.4868 26.2193Z" fill="#DB1B24"/>
<path d="M61.875 48.125C61.875 57.4448 54.3198 65 45 65C35.6802 65 28.125 57.4448 28.125 48.125C28.125 38.8052 35.6802 31.25 45 31.25C54.3198 31.25 61.875 38.8052 61.875 48.125Z" fill="#FFBB0D"/>
<path fill-rule="evenodd" clip-rule="evenodd" d="M63.125 48.125C63.125 58.1352 55.0102 66.25 45 66.25C34.9898 66.25 26.875 58.1352 26.875 48.125C26.875 38.1148 34.9898 30 45 30C55.0102 30 63.125 38.1148 63.125 48.125ZM45 65C54.3198 65 61.875 57.4448 61.875 48.125C61.875 38.8052 54.3198 31.25 45 31.25C35.6802 31.25 28.125 38.8052 28.125 48.125C28.125 57.4448 35.6802 65 45 65Z" fill="#E89B05"/>
<path fill-rule="evenodd" clip-rule="evenodd" d="M29.375 48.75C29.0298 48.75 28.75 48.4702 28.75 48.125C28.75 39.1504 36.0254 31.875 45 31.875C45.3452 31.875 45.625 32.1548 45.625 32.5C45.625 32.8452 45.3452 33.125 45 33.125C36.7157 33.125 30 39.8407 30 48.125C30 48.4702 29.7202 48.75 29.375 48.75Z" fill="#E8AA0A"/>
<path fill-rule="evenodd" clip-rule="evenodd" d="M60.625 47.5C60.9702 47.5 61.25 47.7798 61.25 48.125C61.25 57.0996 53.9746 64.375 45 64.375C44.6548 64.375 44.375 64.0952 44.375 63.75C44.375 63.4048 44.6548 63.125 45 63.125C53.2843 63.125 60 56.4093 60 48.125C60 47.7798 60.2798 47.5 60.625 47.5Z" fill="#E8AA0A"/>
<path d="M57.5 48.125C57.5 55.0286 51.9036 60.625 45 60.625C38.0964 60.625 32.5 55.0286 32.5 48.125C32.5 41.2214 38.0964 35.625 45 35.625C51.9036 35.625 57.5 41.2214 57.5 48.125Z" fill="#FFDD28"/>
<path fill-rule="evenodd" clip-rule="evenodd" d="M58.75 48.125C58.75 55.7189 52.5939 61.875 45 61.875C37.4061 61.875 31.25 55.7189 31.25 48.125C31.25 40.5311 37.4061 34.375 45 34.375C52.5939 34.375 58.75 40.5311 58.75 48.125ZM45 60.625C51.9036 60.625 57.5 55.0286 57.5 48.125C57.5 41.2214 51.9036 35.625 45 35.625C38.0964 35.625 32.5 41.2214 32.5 48.125C32.5 55.0286 38.0964 60.625 45 60.625Z" fill="#E89B05"/>
<path fill-rule="evenodd" clip-rule="evenodd" d="M45 58.75C50.868 58.75 55.625 53.993 55.625 48.125C55.625 47.7798 55.9048 47.5 56.25 47.5C56.5952 47.5 56.875 47.7798 56.875 48.125C56.875 54.6834 51.5584 60 45 60C44.6548 60 44.375 59.7202 44.375 59.375C44.375 59.0298 44.6548 58.75 45 58.75Z" fill="#ECC704"/>
<path fill-rule="evenodd" clip-rule="evenodd" d="M45 37.5C39.132 37.5 34.375 42.257 34.375 48.125C34.375 48.4702 34.0952 48.75 33.75 48.75C33.4048 48.75 33.125 48.4702 33.125 48.125C33.125 41.5666 38.4416 36.25 45 36.25C45.3452 36.25 45.625 36.5298 45.625 36.875C45.625 37.2202 45.3452 37.5 45 37.5Z" fill="#FFEF9C"/>
<path d="M46.4912 53.125H44.3745V44.9658L41.8477 45.7495V44.0283L46.2642 42.4463H46.4912V53.125Z" fill="#FFEF9C"/>
<path fill-rule="evenodd" clip-rule="evenodd" d="M47.7412 53.125C47.7412 53.8154 47.1816 54.375 46.4912 54.375H44.3745C43.6842 54.375 43.1245 53.8154 43.1245 53.125V46.6622L42.2179 46.9434C41.8386 47.0611 41.4259 46.9914 41.1062 46.7558C40.7864 46.5202 40.5977 46.1467 40.5977 45.7495V44.0283C40.5977 43.5005 40.9292 43.0295 41.4261 42.8515L45.8426 41.2695C45.9779 41.2211 46.1205 41.1963 46.2642 41.1963H46.4912C47.1816 41.1963 47.7412 41.7559 47.7412 42.4463V53.125ZM44.3745 44.9658V53.125H46.4912V42.4463H46.2642L41.8477 44.0283V45.7495L44.3745 44.9658Z" fill="#E89B05"/>
</svg>
