<svg width="90" height="80" viewBox="0 0 90 80" fill="none" xmlns="http://www.w3.org/2000/svg">
<rect width="90" height="80" rx="12" fill="#0000FF"/>
<path d="M60.3906 15.3922C61.081 15.3922 61.6406 15.9519 61.6406 16.6422L61.6406 24.1422C61.6406 24.8326 61.081 25.3922 60.3906 25.3922L29.1406 25.3922C28.4503 25.3922 27.8906 24.8326 27.8906 24.1422L27.8906 16.6422C27.8906 15.9519 28.4503 15.3922 29.1406 15.3922L60.3906 15.3922Z" fill="#C52229"/>
<path fill-rule="evenodd" clip-rule="evenodd" d="M62.8906 16.6422L62.8906 24.1422C62.8906 25.5229 61.7713 26.6422 60.3906 26.6422L29.1406 26.6422C27.7599 26.6422 26.6406 25.5229 26.6406 24.1422L26.6406 16.6422C26.6406 15.2615 27.7599 14.1422 29.1406 14.1422L60.3906 14.1422C61.7713 14.1422 62.8906 15.2615 62.8906 16.6422ZM61.6406 16.6422C61.6406 15.9519 61.081 15.3922 60.3906 15.3922L29.1406 15.3922C28.4503 15.3922 27.8906 15.9519 27.8906 16.6422L27.8906 24.1422C27.8906 24.8326 28.4503 25.3922 29.1406 25.3922L60.3906 25.3922C61.081 25.3922 61.6406 24.8326 61.6406 24.1422L61.6406 16.6422Z" fill="#9B0F15"/>
<path fill-rule="evenodd" clip-rule="evenodd" d="M29.0254 16.0172C29.0254 15.672 29.3052 15.3922 29.6504 15.3922H60.2333C60.5785 15.3922 60.8583 15.672 60.8583 16.0172C60.8583 16.3624 60.5785 16.6422 60.2333 16.6422H29.6504C29.3052 16.6422 29.0254 16.3624 29.0254 16.0172Z" fill="#DF3840"/>
<path fill-rule="evenodd" clip-rule="evenodd" d="M28.7891 19.65C28.7891 19.3048 29.0689 19.025 29.4141 19.025H59.997C60.3422 19.025 60.622 19.3048 60.622 19.65C60.622 19.9952 60.3422 20.275 59.997 20.275H29.4141C29.0689 20.275 28.7891 19.9952 28.7891 19.65Z" fill="#AF1B22"/>
<path fill-rule="evenodd" clip-rule="evenodd" d="M28.7891 17.3453C28.7891 17.0002 29.0689 16.7203 29.4141 16.7203H59.997C60.3422 16.7203 60.622 17.0002 60.622 17.3453C60.622 17.6905 60.3422 17.9703 59.997 17.9703H29.4141C29.0689 17.9703 28.7891 17.6905 28.7891 17.3453Z" fill="#AF1B22"/>
<path fill-rule="evenodd" clip-rule="evenodd" d="M28.7891 21.9156C28.7891 21.5705 29.0689 21.2906 29.4141 21.2906H59.997C60.3422 21.2906 60.622 21.5705 60.622 21.9156C60.622 22.2608 60.3422 22.5406 59.997 22.5406H29.4141C29.0689 22.5406 28.7891 22.2608 28.7891 21.9156Z" fill="#AF1B22"/>
<path fill-rule="evenodd" clip-rule="evenodd" d="M29.0254 23.986C29.0254 23.6408 29.3052 23.361 29.6504 23.361H60.2333C60.5785 23.361 60.8583 23.6408 60.8583 23.986C60.8583 24.3311 60.5785 24.611 60.2333 24.611H29.6504C29.3052 24.611 29.0254 24.3311 29.0254 23.986Z" fill="#AF1B22"/>
<path d="M29.8311 15.8839C29.343 15.3957 28.5515 15.3957 28.0634 15.8839L22.7601 21.1872C22.2719 21.6753 22.2719 22.4668 22.7601 22.955L44.0805 44.2754C44.5687 44.7635 45.3601 44.7635 45.8483 44.2754L51.1516 38.9721C51.6397 38.4839 51.6397 37.6925 51.1516 37.2043L29.8311 15.8839Z" fill="#F1333B"/>
<path fill-rule="evenodd" clip-rule="evenodd" d="M27.1795 14.9999L21.8762 20.3032C20.8999 21.2795 20.8999 22.8624 21.8762 23.8387L43.1966 45.1592C44.1729 46.1355 45.7559 46.1355 46.7322 45.1592L52.0355 39.8559C53.0118 38.8795 53.0118 37.2966 52.0355 36.3203L30.715 14.9999C29.7387 14.0236 28.1558 14.0236 27.1795 14.9999ZM28.0634 15.8838C28.5515 15.3956 29.343 15.3956 29.8311 15.8838L51.1516 37.2042C51.6397 37.6924 51.6397 38.4838 51.1516 38.972L45.8483 44.2753C45.3601 44.7634 44.5687 44.7634 44.0805 44.2753L22.7601 22.9548C22.2719 22.4667 22.2719 21.6752 22.7601 21.1871L28.0634 15.8838Z" fill="#9B0F15"/>
<path d="M59.7056 15.9083C60.1917 15.4087 60.9925 15.4032 61.4854 15.8961L66.7886 21.1992C67.272 21.6827 67.2774 22.4648 66.8006 22.9548L46.0809 44.251C45.5948 44.7506 44.794 44.7561 44.3011 44.2632L38.998 38.96C38.5146 38.4766 38.5092 37.6945 38.9859 37.2045L59.7056 15.9083Z" fill="#F1333B"/>
<path fill-rule="evenodd" clip-rule="evenodd" d="M62.3693 15.0121L67.6725 20.3152C68.6393 21.2821 68.6501 22.8463 67.6966 23.8263L46.9769 45.1225C46.0047 46.1217 44.403 46.1327 43.4172 45.1469L38.1141 39.8438C37.1473 38.877 37.1365 37.3127 38.09 36.3327L58.8097 15.0365C59.7819 14.0373 61.3835 14.0263 62.3693 15.0121ZM61.4854 15.896C60.9926 15.4031 60.1917 15.4086 59.7056 15.9082L38.9859 37.2044C38.5092 37.6944 38.5146 38.4765 38.998 38.9599L44.3011 44.2631C44.794 44.756 45.5948 44.7505 46.0809 44.2508L66.8006 22.9547C67.2774 22.4647 67.272 21.6825 66.7886 21.1991L61.4854 15.896Z" fill="#9B0F15"/>
<path fill-rule="evenodd" clip-rule="evenodd" d="M60.7153 16.4326C60.9605 16.6755 60.9623 17.0713 60.7193 17.3164L47.9459 30.2071C47.7029 30.4523 47.3072 30.4541 47.062 30.2111C46.8168 29.9681 46.815 29.5724 47.058 29.3272L59.8314 16.4366C60.0744 16.1914 60.4701 16.1896 60.7153 16.4326Z" fill="#FE666D"/>
<path fill-rule="evenodd" clip-rule="evenodd" d="M22.9194 21.669C23.1635 21.4249 23.5592 21.4249 23.8033 21.669L31.9283 29.794C32.1723 30.038 32.1723 30.4338 31.9283 30.6778C31.6842 30.9219 31.2885 30.9219 31.0444 30.6778L22.9194 22.5528C22.6753 22.3088 22.6753 21.913 22.9194 21.669Z" fill="#FE666D"/>
<path d="M63.2572 20.0162C63.0069 20.2665 62.6061 20.2714 62.362 20.0273C62.1178 19.7831 62.1228 19.3823 62.373 19.1321C62.6233 18.8818 63.0241 18.8769 63.2682 19.121C63.5124 19.3652 63.5075 19.766 63.2572 20.0162Z" fill="#DB1B24"/>
<path d="M61.3584 21.5634C61.0471 21.8747 60.5486 21.8809 60.2449 21.5772C59.9412 21.2735 59.9473 20.7749 60.2586 20.4636C60.5699 20.1523 61.0685 20.1462 61.3722 20.4499C61.6759 20.7536 61.6697 21.2521 61.3584 21.5634Z" fill="#DB1B24"/>
<path d="M63.3814 22.0528C63.2257 22.2084 62.9764 22.2115 62.8246 22.0597C62.6727 21.9078 62.6758 21.6585 62.8315 21.5029C62.9871 21.3472 63.2364 21.3442 63.3882 21.496C63.5401 21.6479 63.537 21.8971 63.3814 22.0528Z" fill="#DB1B24"/>
<path d="M58.8794 27.3329C58.7238 27.4886 58.4745 27.4917 58.3226 27.3398C58.1708 27.188 58.1739 26.9387 58.3295 26.783C58.4852 26.6274 58.7344 26.6243 58.8863 26.7762C59.0381 26.928 59.0351 27.1773 58.8794 27.3329Z" fill="#DB1B24"/>
<path d="M61.1411 23.745C60.9855 23.9006 60.7362 23.9037 60.5844 23.7519C60.4325 23.6 60.4356 23.3507 60.5912 23.1951C60.7469 23.0394 60.9961 23.0364 61.148 23.1882C61.2998 23.3401 61.2968 23.5893 61.1411 23.745Z" fill="#DB1B24"/>
<path d="M58.8735 29.485C58.7179 29.6407 58.4686 29.6438 58.3168 29.4919C58.1649 29.3401 58.168 29.0908 58.3236 28.9351C58.4793 28.7795 58.7286 28.7764 58.8804 28.9283C59.0323 29.0801 59.0292 29.3294 58.8735 29.485Z" fill="#DB1B24"/>
<path d="M59.4439 23.2698C59.2882 23.4255 59.0389 23.4286 58.8871 23.2767C58.7352 23.1249 58.7383 22.8756 58.894 22.7199C59.0496 22.5643 59.2989 22.5612 59.4507 22.7131C59.6026 22.8649 59.5995 23.1142 59.4439 23.2698Z" fill="#DB1B24"/>
<path d="M60.7114 27.723C60.5558 27.8786 60.3065 27.8817 60.1547 27.7298C60.0028 27.578 60.0059 27.3287 60.1615 27.1731C60.3172 27.0174 60.5665 27.0143 60.7183 27.1662C60.8702 27.318 60.8671 27.5673 60.7114 27.723Z" fill="#DB1B24"/>
<path d="M65.27 21.0662C65.1144 21.2218 64.8651 21.2249 64.7133 21.073C64.5614 20.9212 64.5645 20.6719 64.7201 20.5163C64.8758 20.3606 65.1251 20.3575 65.2769 20.5094C65.4288 20.6612 65.4257 20.9105 65.27 21.0662Z" fill="#DB1B24"/>
<path d="M63.2078 24.3319C62.9545 24.5852 62.5488 24.5902 62.3016 24.343C62.0545 24.0959 62.0595 23.6902 62.3128 23.4369C62.5661 23.1836 62.9718 23.1786 63.219 23.4257C63.4661 23.6729 63.4611 24.0785 63.2078 24.3319Z" fill="#DB1B24"/>
<path d="M65.6238 22.8121C65.3705 23.0654 64.9648 23.0704 64.7177 22.8233C64.4705 22.5761 64.4755 22.1705 64.7288 21.9171C64.9822 21.6638 65.3878 21.6588 65.635 21.906C65.8821 22.1531 65.8771 22.5588 65.6238 22.8121Z" fill="#DB1B24"/>
<path d="M60.7312 25.9441C60.4779 26.1974 60.0722 26.2024 59.8251 25.9553C59.578 25.7082 59.583 25.3025 59.8363 25.0492C60.0896 24.7959 60.4953 24.7909 60.7424 25.038C60.9895 25.2851 60.9845 25.6908 60.7312 25.9441Z" fill="#DB1B24"/>
<path d="M62.4868 26.2194C62.3312 26.375 62.0819 26.3781 61.9301 26.2262C61.7782 26.0744 61.7813 25.8251 61.9369 25.6695C62.0926 25.5138 62.3418 25.5107 62.4937 25.6626C62.6455 25.8144 62.6425 26.0637 62.4868 26.2194Z" fill="#DB1B24"/>
<path d="M61.875 48.125C61.875 57.4448 54.3198 65 45 65C35.6802 65 28.125 57.4448 28.125 48.125C28.125 38.8052 35.6802 31.25 45 31.25C54.3198 31.25 61.875 38.8052 61.875 48.125Z" fill="#DCA16A"/>
<path fill-rule="evenodd" clip-rule="evenodd" d="M63.125 48.125C63.125 58.1352 55.0102 66.25 45 66.25C34.9898 66.25 26.875 58.1352 26.875 48.125C26.875 38.1148 34.9898 30 45 30C55.0102 30 63.125 38.1148 63.125 48.125ZM45 65C54.3198 65 61.875 57.4448 61.875 48.125C61.875 38.8052 54.3198 31.25 45 31.25C35.6802 31.25 28.125 38.8052 28.125 48.125C28.125 57.4448 35.6802 65 45 65Z" fill="#C38144"/>
<path fill-rule="evenodd" clip-rule="evenodd" d="M29.375 48.75C29.0298 48.75 28.75 48.4702 28.75 48.125C28.75 39.1504 36.0254 31.875 45 31.875C45.3452 31.875 45.625 32.1548 45.625 32.5C45.625 32.8452 45.3452 33.125 45 33.125C36.7157 33.125 30 39.8407 30 48.125C30 48.4702 29.7202 48.75 29.375 48.75Z" fill="#F0B57F"/>
<path fill-rule="evenodd" clip-rule="evenodd" d="M60.625 47.5C60.9702 47.5 61.25 47.7798 61.25 48.125C61.25 57.0996 53.9746 64.375 45 64.375C44.6548 64.375 44.375 64.0952 44.375 63.75C44.375 63.4048 44.6548 63.125 45 63.125C53.2843 63.125 60 56.4093 60 48.125C60 47.7798 60.2798 47.5 60.625 47.5Z" fill="#CF945D"/>
<path d="M57.5 48.125C57.5 55.0286 51.9036 60.625 45 60.625C38.0964 60.625 32.5 55.0286 32.5 48.125C32.5 41.2214 38.0964 35.625 45 35.625C51.9036 35.625 57.5 41.2214 57.5 48.125Z" fill="#F7BA82"/>
<path fill-rule="evenodd" clip-rule="evenodd" d="M58.75 48.125C58.75 55.7189 52.5939 61.875 45 61.875C37.4061 61.875 31.25 55.7189 31.25 48.125C31.25 40.5311 37.4061 34.375 45 34.375C52.5939 34.375 58.75 40.5311 58.75 48.125ZM45 60.625C51.9036 60.625 57.5 55.0286 57.5 48.125C57.5 41.2214 51.9036 35.625 45 35.625C38.0964 35.625 32.5 41.2214 32.5 48.125C32.5 55.0286 38.0964 60.625 45 60.625Z" fill="#C38144"/>
<path fill-rule="evenodd" clip-rule="evenodd" d="M45 58.75C50.868 58.75 55.625 53.993 55.625 48.125C55.625 47.7798 55.9048 47.5 56.25 47.5C56.5952 47.5 56.875 47.7798 56.875 48.125C56.875 54.6834 51.5584 60 45 60C44.6548 60 44.375 59.7202 44.375 59.375C44.375 59.0298 44.6548 58.75 45 58.75Z" fill="#E6A66C"/>
<path fill-rule="evenodd" clip-rule="evenodd" d="M45 37.5C39.132 37.5 34.375 42.257 34.375 48.125C34.375 48.4702 34.0952 48.75 33.75 48.75C33.4048 48.75 33.125 48.4702 33.125 48.125C33.125 41.5666 38.4416 36.25 45 36.25C45.3452 36.25 45.625 36.5298 45.625 36.875C45.625 37.2202 45.3452 37.5 45 37.5Z" fill="#FFD5AE"/>
<mask id="path-36-outside-1_3335_9681" maskUnits="userSpaceOnUse" x="39.625" y="40.375" width="11" height="15" fill="black">
<rect fill="white" x="39.625" y="40.375" width="11" height="15"/>
<path d="M43.5181 47.1274H44.646C45.0073 47.1274 45.3052 47.0664 45.5396 46.9443C45.7739 46.8174 45.9473 46.6416 46.0596 46.417C46.1768 46.1875 46.2354 45.9214 46.2354 45.6187C46.2354 45.3452 46.1816 45.1035 46.0742 44.8936C45.9717 44.6787 45.813 44.5127 45.5981 44.3955C45.3833 44.2734 45.1123 44.2124 44.7852 44.2124C44.5264 44.2124 44.2871 44.2637 44.0674 44.3662C43.8477 44.4688 43.6719 44.6128 43.54 44.7983C43.4082 44.9839 43.3423 45.2085 43.3423 45.4722H41.2256C41.2256 44.8862 41.3818 44.376 41.6943 43.9414C42.0117 43.5068 42.4365 43.1675 42.9688 42.9233C43.501 42.6792 44.0869 42.5571 44.7266 42.5571C45.4492 42.5571 46.0815 42.6743 46.6235 42.9087C47.1655 43.1382 47.5879 43.4775 47.8906 43.9268C48.1934 44.376 48.3447 44.9326 48.3447 45.5967C48.3447 45.9336 48.2666 46.2607 48.1104 46.5781C47.9541 46.8906 47.7295 47.1738 47.4365 47.4277C47.1484 47.6768 46.7969 47.877 46.3818 48.0283C45.9668 48.1748 45.5005 48.248 44.9829 48.248H43.5181V47.1274ZM43.5181 48.7314V47.6401H44.9829C45.564 47.6401 46.0742 47.7061 46.5137 47.8379C46.9531 47.9697 47.3218 48.1602 47.6196 48.4092C47.9175 48.6533 48.1421 48.9438 48.2935 49.2808C48.4448 49.6128 48.5205 49.9814 48.5205 50.3867C48.5205 50.8848 48.4253 51.3291 48.2349 51.7197C48.0444 52.1055 47.7759 52.4326 47.4292 52.7012C47.0874 52.9697 46.687 53.1748 46.228 53.3164C45.769 53.4531 45.2686 53.5215 44.7266 53.5215C44.2773 53.5215 43.8354 53.4604 43.4009 53.3384C42.9712 53.2114 42.5806 53.0234 42.229 52.7744C41.8823 52.5205 41.604 52.2031 41.394 51.8223C41.189 51.4365 41.0864 50.98 41.0864 50.4526H43.2031C43.2031 50.7261 43.2715 50.9702 43.4082 51.1851C43.5449 51.3999 43.7329 51.5684 43.9722 51.6904C44.2163 51.8125 44.4873 51.8735 44.7852 51.8735C45.1221 51.8735 45.4102 51.8125 45.6494 51.6904C45.8936 51.5635 46.0791 51.3877 46.2061 51.1631C46.3379 50.9336 46.4038 50.6675 46.4038 50.3647C46.4038 49.9741 46.333 49.6616 46.1914 49.4272C46.0498 49.188 45.8472 49.0122 45.5835 48.8999C45.3198 48.7876 45.0073 48.7314 44.646 48.7314H43.5181Z"/>
</mask>
<path d="M43.5181 47.1274H44.646C45.0073 47.1274 45.3052 47.0664 45.5396 46.9443C45.7739 46.8174 45.9473 46.6416 46.0596 46.417C46.1768 46.1875 46.2354 45.9214 46.2354 45.6187C46.2354 45.3452 46.1816 45.1035 46.0742 44.8936C45.9717 44.6787 45.813 44.5127 45.5981 44.3955C45.3833 44.2734 45.1123 44.2124 44.7852 44.2124C44.5264 44.2124 44.2871 44.2637 44.0674 44.3662C43.8477 44.4688 43.6719 44.6128 43.54 44.7983C43.4082 44.9839 43.3423 45.2085 43.3423 45.4722H41.2256C41.2256 44.8862 41.3818 44.376 41.6943 43.9414C42.0117 43.5068 42.4365 43.1675 42.9688 42.9233C43.501 42.6792 44.0869 42.5571 44.7266 42.5571C45.4492 42.5571 46.0815 42.6743 46.6235 42.9087C47.1655 43.1382 47.5879 43.4775 47.8906 43.9268C48.1934 44.376 48.3447 44.9326 48.3447 45.5967C48.3447 45.9336 48.2666 46.2607 48.1104 46.5781C47.9541 46.8906 47.7295 47.1738 47.4365 47.4277C47.1484 47.6768 46.7969 47.877 46.3818 48.0283C45.9668 48.1748 45.5005 48.248 44.9829 48.248H43.5181V47.1274ZM43.5181 48.7314V47.6401H44.9829C45.564 47.6401 46.0742 47.7061 46.5137 47.8379C46.9531 47.9697 47.3218 48.1602 47.6196 48.4092C47.9175 48.6533 48.1421 48.9438 48.2935 49.2808C48.4448 49.6128 48.5205 49.9814 48.5205 50.3867C48.5205 50.8848 48.4253 51.3291 48.2349 51.7197C48.0444 52.1055 47.7759 52.4326 47.4292 52.7012C47.0874 52.9697 46.687 53.1748 46.228 53.3164C45.769 53.4531 45.2686 53.5215 44.7266 53.5215C44.2773 53.5215 43.8354 53.4604 43.4009 53.3384C42.9712 53.2114 42.5806 53.0234 42.229 52.7744C41.8823 52.5205 41.604 52.2031 41.394 51.8223C41.189 51.4365 41.0864 50.98 41.0864 50.4526H43.2031C43.2031 50.7261 43.2715 50.9702 43.4082 51.1851C43.5449 51.3999 43.7329 51.5684 43.9722 51.6904C44.2163 51.8125 44.4873 51.8735 44.7852 51.8735C45.1221 51.8735 45.4102 51.8125 45.6494 51.6904C45.8936 51.5635 46.0791 51.3877 46.2061 51.1631C46.3379 50.9336 46.4038 50.6675 46.4038 50.3647C46.4038 49.9741 46.333 49.6616 46.1914 49.4272C46.0498 49.188 45.8472 49.0122 45.5835 48.8999C45.3198 48.7876 45.0073 48.7314 44.646 48.7314H43.5181Z" fill="#FFD5AE"/>
<path d="M43.5181 47.1274V45.8774C42.8277 45.8774 42.2681 46.4371 42.2681 47.1274H43.5181ZM45.5396 46.9443L46.117 48.053C46.123 48.0499 46.129 48.0467 46.1349 48.0435L45.5396 46.9443ZM46.0596 46.417L44.9463 45.8485L44.9415 45.858L46.0596 46.417ZM46.0742 44.8936L44.9461 45.432C44.9511 45.4423 44.9562 45.4527 44.9614 45.4629L46.0742 44.8936ZM45.5981 44.3955L44.9806 45.4823C44.9869 45.4859 44.9932 45.4894 44.9996 45.4929L45.5981 44.3955ZM43.3423 45.4722V46.7222C44.0326 46.7222 44.5923 46.1625 44.5923 45.4722H43.3423ZM41.2256 45.4722H39.9756C39.9756 46.1625 40.5352 46.7222 41.2256 46.7222V45.4722ZM41.6943 43.9414L40.6849 43.2041L40.6795 43.2116L41.6943 43.9414ZM46.6235 42.9087L46.1274 44.056L46.1361 44.0598L46.6235 42.9087ZM47.8906 43.9268L48.9272 43.2282L47.8906 43.9268ZM48.1104 46.5781L49.2284 47.1372L49.2318 47.1302L48.1104 46.5781ZM47.4365 47.4277L48.254 48.3734L48.2552 48.3723L47.4365 47.4277ZM46.3818 48.0283L46.7979 49.2071L46.8101 49.2027L46.3818 48.0283ZM43.5181 48.248H42.2681C42.2681 48.9384 42.8277 49.498 43.5181 49.498V48.248ZM43.5181 48.7314H42.2681C42.2681 49.4218 42.8277 49.9814 43.5181 49.9814V48.7314ZM43.5181 47.6401V46.3901C42.8277 46.3901 42.2681 46.9498 42.2681 47.6401H43.5181ZM47.6196 48.4092L46.8178 49.3682L46.8272 49.3759L47.6196 48.4092ZM48.2935 49.2808L47.1532 49.793L47.1561 49.7993L48.2935 49.2808ZM48.2349 51.7197L49.3557 52.2731L49.3585 52.2675L48.2349 51.7197ZM47.4292 52.7012L46.6637 51.713L46.6569 51.7183L47.4292 52.7012ZM46.228 53.3164L46.5849 54.5144L46.5965 54.5109L46.228 53.3164ZM43.4009 53.3384L43.0467 54.5372C43.0521 54.5387 43.0574 54.5403 43.0628 54.5418L43.4009 53.3384ZM42.229 52.7744L41.4904 53.7829C41.4957 53.7868 41.5011 53.7906 41.5065 53.7944L42.229 52.7744ZM41.394 51.8223L40.2903 52.4091C40.2933 52.4146 40.2963 52.4202 40.2994 52.4257L41.394 51.8223ZM41.0864 50.4526V49.2026C40.3961 49.2026 39.8364 49.7623 39.8364 50.4526H41.0864ZM43.2031 50.4526H44.4531C44.4531 49.7623 43.8935 49.2026 43.2031 49.2026V50.4526ZM43.4082 51.1851L42.3536 51.8562L43.4082 51.1851ZM43.9722 51.6904L43.4041 52.8039L43.4132 52.8085L43.9722 51.6904ZM45.6494 51.6904L46.2175 52.8039L46.2261 52.7995L45.6494 51.6904ZM46.2061 51.1631L45.1221 50.5404L45.1179 50.548L46.2061 51.1631ZM46.1914 49.4272L45.1156 50.0639L45.1215 50.0736L46.1914 49.4272ZM43.5181 48.3774H44.646V45.8774H43.5181V48.3774ZM44.646 48.3774C45.1382 48.3774 45.651 48.2957 46.117 48.053L44.9621 45.8357C44.9593 45.8371 44.8765 45.8774 44.646 45.8774V48.3774ZM46.1349 48.0435C46.5801 47.8023 46.9434 47.4445 47.1776 46.976L44.9415 45.858C44.9419 45.8572 44.9435 45.8543 44.9463 45.8503C44.9492 45.8463 44.9523 45.8426 44.9553 45.8396C44.9582 45.8366 44.9597 45.8356 44.9587 45.8364C44.9576 45.8372 44.9532 45.8403 44.9442 45.8452L46.1349 48.0435ZM47.1728 46.9855C47.3944 46.5516 47.4854 46.0845 47.4854 45.6187H44.9854C44.9854 45.7582 44.9592 45.8234 44.9463 45.8485L47.1728 46.9855ZM47.4854 45.6187C47.4854 45.1789 47.398 44.7366 47.187 44.3242L44.9614 45.4629C44.9653 45.4705 44.9854 45.5116 44.9854 45.6187H47.4854ZM47.2023 44.3551C46.9831 43.8959 46.6356 43.5375 46.1967 43.2981L44.9996 45.4929C45.0013 45.4938 44.9901 45.4877 44.9747 45.4716C44.9591 45.4553 44.9498 45.4398 44.9461 45.432L47.2023 44.3551ZM46.2157 43.3087C45.7613 43.0505 45.2609 42.9624 44.7852 42.9624V45.4624C44.9637 45.4624 45.0054 45.4964 44.9806 45.4823L46.2157 43.3087ZM44.7852 42.9624C44.3562 42.9624 43.935 43.0486 43.5388 43.2335L44.596 45.4989C44.6392 45.4788 44.6965 45.4624 44.7852 45.4624V42.9624ZM43.5388 43.2335C43.1362 43.4213 42.7864 43.7009 42.5211 44.0743L44.559 45.5223C44.5606 45.5201 44.5613 45.5194 44.563 45.518C44.5651 45.5163 44.5743 45.5091 44.596 45.4989L43.5388 43.2335ZM42.5211 44.0743C42.2161 44.5036 42.0923 44.9915 42.0923 45.4722H44.5923C44.5923 45.4447 44.5957 45.4425 44.5911 45.458C44.5889 45.4655 44.5852 45.4758 44.5795 45.4877C44.5737 45.4997 44.5668 45.5115 44.559 45.5223L42.5211 44.0743ZM43.3423 44.2222H41.2256V46.7222H43.3423V44.2222ZM42.4756 45.4722C42.4756 45.122 42.5641 44.8729 42.7092 44.6712L40.6795 43.2116C40.1995 43.8791 39.9756 44.6504 39.9756 45.4722H42.4756ZM42.7038 44.6786C42.8842 44.4316 43.1343 44.2226 43.4899 44.0595L42.4476 41.7872C41.7388 42.1123 41.1392 42.5821 40.6849 43.2042L42.7038 44.6786ZM43.4899 44.0595C43.844 43.8971 44.25 43.8071 44.7266 43.8071V41.3071C43.9238 41.3071 43.1579 41.4613 42.4476 41.7872L43.4899 44.0595ZM44.7266 43.8071C45.3158 43.8071 45.7729 43.9027 46.1274 44.056L47.1197 41.7614C46.3902 41.4459 45.5826 41.3071 44.7266 41.3071V43.8071ZM46.1361 44.0598C46.4752 44.2033 46.6984 44.3943 46.854 44.6253L48.9272 43.2282C48.4774 42.5607 47.8558 42.073 47.1109 41.7576L46.1361 44.0598ZM46.854 44.6253C46.989 44.8256 47.0947 45.1248 47.0947 45.5967H49.5947C49.5947 44.7404 49.3977 43.9263 48.9272 43.2282L46.854 44.6253ZM47.0947 45.5967C47.0947 45.7325 47.0649 45.8716 46.9889 46.026L49.2318 47.1302C49.4683 46.6499 49.5947 46.1346 49.5947 45.5967H47.0947ZM46.9923 46.0191C46.9172 46.1693 46.8003 46.325 46.6179 46.4831L48.2552 48.3723C48.6587 48.0226 48.991 47.6119 49.2284 47.1371L46.9923 46.0191ZM46.6191 46.4821C46.4626 46.6174 46.2485 46.7464 45.9535 46.854L46.8101 49.2027C47.3452 49.0075 47.8343 48.7362 48.254 48.3734L46.6191 46.4821ZM45.9658 46.8496C45.7056 46.9414 45.3831 46.998 44.9829 46.998V49.498C45.6178 49.498 46.228 49.4082 46.7979 49.2071L45.9658 46.8496ZM44.9829 46.998H43.5181V49.498H44.9829V46.998ZM44.7681 48.248V47.1274H42.2681V48.248H44.7681ZM44.7681 48.7314V47.6401H42.2681V48.7314H44.7681ZM43.5181 48.8901H44.9829V46.3901H43.5181V48.8901ZM44.9829 48.8901C45.4731 48.8901 45.8578 48.9462 46.1545 49.0352L46.8729 46.6406C46.2907 46.466 45.6549 46.3901 44.9829 46.3901V48.8901ZM46.1545 49.0352C46.4608 49.1271 46.6713 49.2456 46.8179 49.3682L48.4214 47.4502C47.9723 47.0747 47.4454 46.8124 46.8729 46.6406L46.1545 49.0352ZM46.8272 49.3759C46.9821 49.5029 47.0845 49.6401 47.1532 49.793L49.4337 48.7685C49.1997 48.2476 48.8528 47.8037 48.412 47.4424L46.8272 49.3759ZM47.1561 49.7993C47.2254 49.9513 47.2705 50.1404 47.2705 50.3867H49.7705C49.7705 49.8225 49.6643 49.2743 49.4308 48.7622L47.1561 49.7993ZM47.2705 50.3867C47.2705 50.7227 47.2072 50.9753 47.1113 51.172L49.3585 52.2675C49.6434 51.6829 49.7705 51.0468 49.7705 50.3867H47.2705ZM47.114 51.1664C47.0092 51.3787 46.8635 51.5582 46.6637 51.713L48.1947 53.6894C48.6883 53.307 49.0797 52.8322 49.3557 52.2731L47.114 51.1664ZM46.6569 51.7183C46.4476 51.8827 46.1874 52.0208 45.8595 52.122L46.5965 54.5109C47.1866 54.3288 47.7272 54.0567 48.2015 53.6841L46.6569 51.7183ZM45.8712 52.1184C45.5421 52.2164 45.1634 52.2715 44.7266 52.2715V54.7715C45.3738 54.7715 45.996 54.6898 46.5849 54.5144L45.8712 52.1184ZM44.7266 52.2715C44.3922 52.2715 44.064 52.2263 43.7389 52.135L43.0628 54.5418C43.6069 54.6946 44.1625 54.7715 44.7266 54.7715V52.2715ZM43.7551 52.1396C43.4518 52.05 43.1865 51.9208 42.9515 51.7544L41.5065 53.7944C41.9746 54.126 42.4906 54.3728 43.0467 54.5372L43.7551 52.1396ZM42.9676 51.766C42.7695 51.6209 42.612 51.4423 42.4887 51.2188L40.2994 52.4257C40.596 52.9639 40.9952 53.4202 41.4904 53.7829L42.9676 51.766ZM42.4978 51.2355C42.4067 51.0642 42.3364 50.8174 42.3364 50.4526H39.8364C39.8364 51.1425 39.9712 51.8088 40.2903 52.4091L42.4978 51.2355ZM41.0864 51.7026H43.2031V49.2026H41.0864V51.7026ZM41.9531 50.4526C41.9531 50.9455 42.0798 51.4258 42.3536 51.8562L44.4628 50.514C44.4599 50.5095 44.4591 50.5073 44.4581 50.5038C44.4569 50.4997 44.4531 50.4843 44.4531 50.4526H41.9531ZM42.3536 51.8562C42.6168 52.2697 42.9774 52.5862 43.4041 52.8039L44.5403 50.577C44.4884 50.5505 44.4731 50.5301 44.4628 50.514L42.3536 51.8562ZM43.4132 52.8085C43.8463 53.025 44.3113 53.1235 44.7852 53.1235V50.6235C44.6633 50.6235 44.5863 50.6 44.5312 50.5724L43.4132 52.8085ZM44.7852 53.1235C45.2705 53.1235 45.7633 53.0356 46.2175 52.8039L45.0813 50.577C45.057 50.5894 44.9737 50.6235 44.7852 50.6235V53.1235ZM46.2261 52.7995C46.67 52.5686 47.0402 52.2277 47.2943 51.7782L45.1179 50.548C45.115 50.5531 45.1136 50.5544 45.112 50.5559C45.1099 50.5579 45.0994 50.5675 45.0727 50.5814L46.2261 52.7995ZM47.2899 51.7857C47.5455 51.3409 47.6538 50.8541 47.6538 50.3647H45.1538C45.1538 50.4809 45.1303 50.5263 45.1222 50.5404L47.2899 51.7857ZM47.6538 50.3647C47.6538 49.8383 47.5607 49.2763 47.2613 48.7809L45.1215 50.0736C45.1054 50.0469 45.1538 50.1099 45.1538 50.3647H47.6538ZM47.2671 48.7906C46.9855 48.3147 46.5739 47.9631 46.0733 47.7499L45.0937 50.0499C45.1044 50.0545 45.1104 50.0579 45.1128 50.0595C45.1152 50.0609 45.1153 50.0612 45.1141 50.0602C45.1129 50.0592 45.112 50.0581 45.1116 50.0577C45.1113 50.0573 45.1128 50.059 45.1157 50.0639L47.2671 48.7906ZM46.0733 47.7499C45.6201 47.5568 45.1333 47.4814 44.646 47.4814V49.9814C44.8813 49.9814 45.0196 50.0184 45.0937 50.0499L46.0733 47.7499ZM44.646 47.4814H43.5181V49.9814H44.646V47.4814Z" fill="#C28044" mask="url(#path-36-outside-1_3335_9681)"/>
</svg>
