<svg width="90" height="80" viewBox="0 0 90 80" fill="none" xmlns="http://www.w3.org/2000/svg">
<rect width="90" height="80" rx="12" fill="#ED1C24"/>
<path d="M60.3906 15.3921C61.081 15.3921 61.6406 15.9517 61.6406 16.6421L61.6406 24.1421C61.6406 24.8324 61.081 25.3921 60.3906 25.3921L29.1406 25.3921C28.4503 25.3921 27.8906 24.8324 27.8906 24.1421L27.8906 16.6421C27.8906 15.9517 28.4503 15.3921 29.1406 15.3921L60.3906 15.3921Z" fill="#C52229"/>
<path fill-rule="evenodd" clip-rule="evenodd" d="M62.8906 16.6421L62.8906 24.1421C62.8906 25.5228 61.7713 26.6421 60.3906 26.6421L29.1406 26.6421C27.7599 26.6421 26.6406 25.5228 26.6406 24.1421L26.6406 16.6421C26.6406 15.2614 27.7599 14.1421 29.1406 14.1421L60.3906 14.1421C61.7713 14.1421 62.8906 15.2614 62.8906 16.6421ZM61.6406 16.6421C61.6406 15.9517 61.081 15.3921 60.3906 15.3921L29.1406 15.3921C28.4503 15.3921 27.8906 15.9517 27.8906 16.6421L27.8906 24.1421C27.8906 24.8324 28.4503 25.3921 29.1406 25.3921L60.3906 25.3921C61.081 25.3921 61.6406 24.8324 61.6406 24.1421L61.6406 16.6421Z" fill="#9B0F15"/>
<path fill-rule="evenodd" clip-rule="evenodd" d="M29.0254 16.0171C29.0254 15.6719 29.3052 15.3921 29.6504 15.3921H60.2333C60.5785 15.3921 60.8583 15.6719 60.8583 16.0171C60.8583 16.3623 60.5785 16.6421 60.2333 16.6421H29.6504C29.3052 16.6421 29.0254 16.3623 29.0254 16.0171Z" fill="#DF3840"/>
<path fill-rule="evenodd" clip-rule="evenodd" d="M28.7891 19.6499C28.7891 19.3047 29.0689 19.0249 29.4141 19.0249H59.997C60.3422 19.0249 60.622 19.3047 60.622 19.6499C60.622 19.9951 60.3422 20.2749 59.997 20.2749H29.4141C29.0689 20.2749 28.7891 19.9951 28.7891 19.6499Z" fill="#AF1B22"/>
<path fill-rule="evenodd" clip-rule="evenodd" d="M28.7891 17.3452C28.7891 17 29.0689 16.7202 29.4141 16.7202H59.997C60.3422 16.7202 60.622 17 60.622 17.3452C60.622 17.6904 60.3422 17.9702 59.997 17.9702H29.4141C29.0689 17.9702 28.7891 17.6904 28.7891 17.3452Z" fill="#AF1B22"/>
<path fill-rule="evenodd" clip-rule="evenodd" d="M28.7891 21.9155C28.7891 21.5703 29.0689 21.2905 29.4141 21.2905H59.997C60.3422 21.2905 60.622 21.5703 60.622 21.9155C60.622 22.2607 60.3422 22.5405 59.997 22.5405H29.4141C29.0689 22.5405 28.7891 22.2607 28.7891 21.9155Z" fill="#AF1B22"/>
<path fill-rule="evenodd" clip-rule="evenodd" d="M29.0254 23.9858C29.0254 23.6407 29.3052 23.3608 29.6504 23.3608H60.2333C60.5785 23.3608 60.8583 23.6407 60.8583 23.9858C60.8583 24.331 60.5785 24.6108 60.2333 24.6108H29.6504C29.3052 24.6108 29.0254 24.331 29.0254 23.9858Z" fill="#AF1B22"/>
<path d="M29.8311 15.8839C29.343 15.3957 28.5515 15.3957 28.0634 15.8839L22.7601 21.1872C22.2719 21.6753 22.2719 22.4668 22.7601 22.955L44.0805 44.2754C44.5687 44.7635 45.3601 44.7635 45.8483 44.2754L51.1516 38.9721C51.6397 38.4839 51.6397 37.6925 51.1516 37.2043L29.8311 15.8839Z" fill="#F1333B"/>
<path fill-rule="evenodd" clip-rule="evenodd" d="M27.1795 14.9999L21.8762 20.3032C20.8999 21.2796 20.8999 22.8625 21.8762 23.8388L43.1966 45.1592C44.1729 46.1355 45.7559 46.1355 46.7322 45.1592L52.0355 39.8559C53.0118 38.8796 53.0118 37.2967 52.0355 36.3204L30.715 14.9999C29.7387 14.0236 28.1558 14.0236 27.1795 14.9999ZM28.0634 15.8838C28.5515 15.3957 29.343 15.3957 29.8311 15.8838L51.1516 37.2043C51.6397 37.6924 51.6397 38.4839 51.1516 38.972L45.8483 44.2753C45.3601 44.7635 44.5687 44.7635 44.0805 44.2753L22.7601 22.9549C22.2719 22.4667 22.2719 21.6753 22.7601 21.1871L28.0634 15.8838Z" fill="#9B0F15"/>
<path d="M59.7056 15.9083C60.1917 15.4087 60.9925 15.4032 61.4854 15.8961L66.7886 21.1992C67.272 21.6827 67.2774 22.4648 66.8006 22.9548L46.0809 44.251C45.5948 44.7506 44.794 44.7561 44.3011 44.2632L38.998 38.96C38.5146 38.4766 38.5092 37.6945 38.9859 37.2045L59.7056 15.9083Z" fill="#F1333B"/>
<path fill-rule="evenodd" clip-rule="evenodd" d="M62.3693 15.0122L67.6725 20.3153C68.6393 21.2821 68.6501 22.8464 67.6966 23.8264L46.9769 45.1226C46.0047 46.1218 44.403 46.1328 43.4172 45.147L38.1141 39.8439C37.1473 38.877 37.1365 37.3128 38.09 36.3328L58.8097 15.0366C59.7819 14.0373 61.3835 14.0264 62.3693 15.0122ZM61.4854 15.896C60.9926 15.4031 60.1917 15.4086 59.7056 15.9082L38.9859 37.2044C38.5092 37.6944 38.5146 38.4766 38.998 38.96L44.3011 44.2631C44.794 44.756 45.5948 44.7505 46.0809 44.2509L66.8006 22.9547C67.2774 22.4647 67.272 21.6826 66.7886 21.1992L61.4854 15.896Z" fill="#9B0F15"/>
<path fill-rule="evenodd" clip-rule="evenodd" d="M60.7153 16.4325C60.9605 16.6755 60.9623 17.0712 60.7193 17.3164L47.9459 30.207C47.7029 30.4522 47.3072 30.454 47.062 30.211C46.8168 29.9681 46.815 29.5724 47.058 29.3272L59.8314 16.4365C60.0744 16.1914 60.4701 16.1895 60.7153 16.4325Z" fill="#FE666D"/>
<path fill-rule="evenodd" clip-rule="evenodd" d="M22.9194 21.6689C23.1635 21.4248 23.5592 21.4248 23.8033 21.6689L31.9283 29.7939C32.1723 30.038 32.1723 30.4337 31.9283 30.6778C31.6842 30.9219 31.2885 30.9219 31.0444 30.6778L22.9194 22.5528C22.6753 22.3087 22.6753 21.913 22.9194 21.6689Z" fill="#FE666D"/>
<path d="M63.2572 20.0167C63.0069 20.267 62.6061 20.2719 62.362 20.0278C62.1178 19.7836 62.1228 19.3828 62.373 19.1326C62.6233 18.8823 63.0241 18.8774 63.2682 19.1215C63.5124 19.3657 63.5075 19.7665 63.2572 20.0167Z" fill="#DB1B24"/>
<path d="M61.3584 21.564C61.0471 21.8752 60.5486 21.8814 60.2449 21.5777C59.9412 21.274 59.9473 20.7755 60.2586 20.4642C60.5699 20.1529 61.0685 20.1467 61.3722 20.4504C61.6759 20.7541 61.6697 21.2527 61.3584 21.564Z" fill="#DB1B24"/>
<path d="M63.3814 22.053C63.2257 22.2087 62.9764 22.2118 62.8246 22.0599C62.6727 21.9081 62.6758 21.6588 62.8315 21.5031C62.9871 21.3475 63.2364 21.3444 63.3882 21.4963C63.5401 21.6481 63.537 21.8974 63.3814 22.053Z" fill="#DB1B24"/>
<path d="M58.8794 27.3332C58.7238 27.4888 58.4745 27.4919 58.3226 27.3401C58.1708 27.1882 58.1739 26.9389 58.3295 26.7833C58.4852 26.6276 58.7344 26.6246 58.8863 26.7764C59.0381 26.9283 59.0351 27.1775 58.8794 27.3332Z" fill="#DB1B24"/>
<path d="M61.1411 23.7454C60.9855 23.9011 60.7362 23.9041 60.5844 23.7523C60.4325 23.6004 60.4356 23.3512 60.5912 23.1955C60.7469 23.0399 60.9961 23.0368 61.148 23.1886C61.2998 23.3405 61.2968 23.5898 61.1411 23.7454Z" fill="#DB1B24"/>
<path d="M58.8735 29.4853C58.7179 29.6409 58.4686 29.644 58.3168 29.4922C58.1649 29.3403 58.168 29.091 58.3236 28.9354C58.4793 28.7797 58.7286 28.7767 58.8804 28.9285C59.0323 29.0804 59.0292 29.3296 58.8735 29.4853Z" fill="#DB1B24"/>
<path d="M59.4439 23.2702C59.2882 23.4258 59.0389 23.4289 58.8871 23.2771C58.7352 23.1252 58.7383 22.8759 58.894 22.7203C59.0496 22.5647 59.2989 22.5616 59.4507 22.7134C59.6026 22.8653 59.5995 23.1146 59.4439 23.2702Z" fill="#DB1B24"/>
<path d="M60.7114 27.7232C60.5558 27.8788 60.3065 27.8819 60.1547 27.7301C60.0028 27.5782 60.0059 27.3289 60.1615 27.1733C60.3172 27.0177 60.5665 27.0146 60.7183 27.1664C60.8702 27.3183 60.8671 27.5676 60.7114 27.7232Z" fill="#DB1B24"/>
<path d="M65.27 21.0665C65.1144 21.2221 64.8651 21.2252 64.7133 21.0733C64.5614 20.9215 64.5645 20.6722 64.7201 20.5166C64.8758 20.3609 65.1251 20.3578 65.2769 20.5097C65.4288 20.6615 65.4257 20.9108 65.27 21.0665Z" fill="#DB1B24"/>
<path d="M63.2078 24.3322C62.9545 24.5855 62.5488 24.5905 62.3016 24.3434C62.0545 24.0963 62.0595 23.6906 62.3128 23.4373C62.5661 23.184 62.9718 23.179 63.219 23.4261C63.4661 23.6732 63.4611 24.0789 63.2078 24.3322Z" fill="#DB1B24"/>
<path d="M65.6238 22.8123C65.3705 23.0656 64.9648 23.0706 64.7177 22.8235C64.4705 22.5764 64.4755 22.1707 64.7288 21.9174C64.9822 21.6641 65.3878 21.6591 65.635 21.9062C65.8821 22.1533 65.8771 22.559 65.6238 22.8123Z" fill="#DB1B24"/>
<path d="M60.7312 25.9444C60.4779 26.1977 60.0722 26.2027 59.8251 25.9556C59.578 25.7085 59.583 25.3028 59.8363 25.0495C60.0896 24.7962 60.4953 24.7912 60.7424 25.0383C60.9895 25.2854 60.9845 25.6911 60.7312 25.9444Z" fill="#DB1B24"/>
<path d="M62.4868 26.2197C62.3312 26.3753 62.0819 26.3784 61.9301 26.2265C61.7782 26.0747 61.7813 25.8254 61.9369 25.6698C62.0926 25.5141 62.3418 25.511 62.4937 25.6629C62.6455 25.8147 62.6425 26.064 62.4868 26.2197Z" fill="#DB1B24"/>
<path d="M61.875 48.125C61.875 57.4448 54.3198 65 45 65C35.6802 65 28.125 57.4448 28.125 48.125C28.125 38.8052 35.6802 31.25 45 31.25C54.3198 31.25 61.875 38.8052 61.875 48.125Z" fill="#BCCCD2"/>
<path fill-rule="evenodd" clip-rule="evenodd" d="M63.125 48.125C63.125 58.1352 55.0102 66.25 45 66.25C34.9898 66.25 26.875 58.1352 26.875 48.125C26.875 38.1148 34.9898 30 45 30C55.0102 30 63.125 38.1148 63.125 48.125ZM45 65C54.3198 65 61.875 57.4448 61.875 48.125C61.875 38.8052 54.3198 31.25 45 31.25C35.6802 31.25 28.125 38.8052 28.125 48.125C28.125 57.4448 35.6802 65 45 65Z" fill="#81A5B0"/>
<path fill-rule="evenodd" clip-rule="evenodd" d="M29.375 48.75C29.0298 48.75 28.75 48.4702 28.75 48.125C28.75 39.1504 36.0254 31.875 45 31.875C45.3452 31.875 45.625 32.1548 45.625 32.5C45.625 32.8452 45.3452 33.125 45 33.125C36.7157 33.125 30 39.8407 30 48.125C30 48.4702 29.7202 48.75 29.375 48.75Z" fill="#D0DEE3"/>
<path fill-rule="evenodd" clip-rule="evenodd" d="M60.625 47.5C60.9702 47.5 61.25 47.7798 61.25 48.125C61.25 57.0996 53.9746 64.375 45 64.375C44.6548 64.375 44.375 64.0952 44.375 63.75C44.375 63.4048 44.6548 63.125 45 63.125C53.2843 63.125 60 56.4093 60 48.125C60 47.7798 60.2798 47.5 60.625 47.5Z" fill="#A2B9C1"/>
<path d="M57.5 48.125C57.5 55.0286 51.9036 60.625 45 60.625C38.0964 60.625 32.5 55.0286 32.5 48.125C32.5 41.2214 38.0964 35.625 45 35.625C51.9036 35.625 57.5 41.2214 57.5 48.125Z" fill="#C7D4D8"/>
<path fill-rule="evenodd" clip-rule="evenodd" d="M58.75 48.125C58.75 55.7189 52.5939 61.875 45 61.875C37.4061 61.875 31.25 55.7189 31.25 48.125C31.25 40.5311 37.4061 34.375 45 34.375C52.5939 34.375 58.75 40.5311 58.75 48.125ZM45 60.625C51.9036 60.625 57.5 55.0286 57.5 48.125C57.5 41.2214 51.9036 35.625 45 35.625C38.0964 35.625 32.5 41.2214 32.5 48.125C32.5 55.0286 38.0964 60.625 45 60.625Z" fill="#81A5B0"/>
<path fill-rule="evenodd" clip-rule="evenodd" d="M45 58.75C50.868 58.75 55.625 53.993 55.625 48.125C55.625 47.7798 55.9048 47.5 56.25 47.5C56.5952 47.5 56.875 47.7798 56.875 48.125C56.875 54.6834 51.5584 60 45 60C44.6548 60 44.375 59.7202 44.375 59.375C44.375 59.0298 44.6548 58.75 45 58.75Z" fill="#B5C3C8"/>
<path fill-rule="evenodd" clip-rule="evenodd" d="M45 37.5C39.132 37.5 34.375 42.257 34.375 48.125C34.375 48.4702 34.0952 48.75 33.75 48.75C33.4048 48.75 33.125 48.4702 33.125 48.125C33.125 41.5666 38.4416 36.25 45 36.25C45.3452 36.25 45.625 36.5298 45.625 36.875C45.625 37.2202 45.3452 37.5 45 37.5Z" fill="#D9EAEF"/>
<path d="M48.6587 53.125H41.3491V51.6748L44.7988 47.998C45.2725 47.4805 45.6216 47.0288 45.8462 46.6431C46.0757 46.2573 46.1904 45.8911 46.1904 45.5444C46.1904 45.0708 46.0708 44.6997 45.8315 44.4312C45.5923 44.1577 45.2505 44.021 44.8062 44.021C44.3276 44.021 43.9492 44.187 43.6709 44.519C43.3975 44.8462 43.2607 45.2783 43.2607 45.8154H41.1367C41.1367 45.166 41.2905 44.5728 41.5981 44.0356C41.9106 43.4985 42.3501 43.0786 42.9165 42.7759C43.4829 42.4683 44.125 42.3145 44.8428 42.3145C45.9414 42.3145 46.7935 42.5781 47.3989 43.1055C48.0093 43.6328 48.3145 44.3774 48.3145 45.3394C48.3145 45.8667 48.1777 46.4038 47.9043 46.9507C47.6309 47.4976 47.1621 48.1348 46.498 48.8623L44.0737 51.4185H48.6587V53.125Z" fill="#D9EAEF"/>
<path fill-rule="evenodd" clip-rule="evenodd" d="M49.9087 53.125C49.9087 53.8154 49.349 54.375 48.6587 54.375H41.3491C40.6588 54.375 40.0991 53.8154 40.0991 53.125V51.6748C40.0991 51.3571 40.2201 51.0512 40.4375 50.8195L43.8818 47.1486C44.3223 46.6667 44.6047 46.291 44.766 46.0141L44.7719 46.004C44.9196 45.7558 44.9404 45.6091 44.9404 45.5444C44.9404 45.4109 44.9234 45.3328 44.911 45.2944C44.9089 45.2879 44.9069 45.2825 44.9051 45.278C44.8852 45.2746 44.8531 45.271 44.8062 45.271C44.7127 45.271 44.6735 45.2868 44.6656 45.2902C44.6607 45.2924 44.6574 45.2944 44.6537 45.2971C44.65 45.3 44.6417 45.3069 44.6294 45.3214C44.5884 45.3707 44.5107 45.4948 44.5107 45.8154C44.5107 46.5058 43.9511 47.0654 43.2607 47.0654H41.1367C40.4464 47.0654 39.8867 46.5058 39.8867 45.8154C39.8867 44.9592 40.0921 44.1501 40.5134 43.4144L40.5177 43.407C40.9502 42.6637 41.5616 42.0835 42.3236 41.6754C43.0922 41.2588 43.9422 41.0645 44.8428 41.0645C46.1308 41.0645 47.3133 41.3742 48.218 42.1612C49.1551 42.9719 49.5645 44.0919 49.5645 45.3394C49.5645 46.0895 49.3687 46.8169 49.0223 47.5097C48.6758 48.2029 48.1219 48.9375 47.4213 49.705C47.4159 49.7109 47.4105 49.7167 47.405 49.7225L46.982 50.1685H48.6587C49.349 50.1685 49.9087 50.7281 49.9087 51.4185V53.125ZM44.0737 51.4185L46.498 48.8623C47.1621 48.1348 47.6309 47.4976 47.9043 46.9507C48.1777 46.4038 48.3145 45.8667 48.3145 45.3394C48.3145 44.3774 48.0093 43.6328 47.3989 43.1055C46.7935 42.5781 45.9414 42.3145 44.8428 42.3145C44.125 42.3145 43.4829 42.4683 42.9165 42.7759C42.3501 43.0786 41.9106 43.4985 41.5981 44.0356C41.5003 44.2066 41.4179 44.3831 41.3512 44.5654C41.2082 44.956 41.1367 45.3727 41.1367 45.8154H43.2607C43.2607 45.2783 43.3975 44.8462 43.6709 44.519C43.9492 44.187 44.3276 44.021 44.8062 44.021C45.2505 44.021 45.5923 44.1577 45.8315 44.4312C46.0708 44.6997 46.1904 45.0708 46.1904 45.5444C46.1904 45.8911 46.0757 46.2573 45.8462 46.6431C45.6216 47.0288 45.2725 47.4805 44.7988 47.998L41.3491 51.6748V53.125H48.6587V51.4185H44.0737Z" fill="#81A5B0"/>
</svg>
