<svg width="61" height="60" viewBox="0 0 61 60" fill="none" xmlns="http://www.w3.org/2000/svg">
<rect x="0.523438" width="59.9537" height="60" rx="29.9769" fill="#0000FF"/>
<path fill-rule="evenodd" clip-rule="evenodd" d="M45.3714 15.17C45.6157 15.5528 45.561 16.0541 45.2398 16.3753L28.8122 32.803C28.5117 33.1034 28.0503 33.1727 27.6748 32.9739L16.0385 26.8136C15.7006 26.6347 15.4997 26.2736 15.5257 25.8922C15.5517 25.5107 15.7998 25.1804 16.1589 25.049L44.2227 14.7817C44.6494 14.6256 45.127 14.7871 45.3714 15.17ZM18.8662 26.12L27.9488 30.9284L40.7712 18.106L18.8662 26.12Z" fill="white"/>
<path fill-rule="evenodd" clip-rule="evenodd" d="M45.0767 14.8747C45.4595 15.1191 45.621 15.5967 45.4649 16.0233L35.1977 44.0871C35.0663 44.4463 34.7359 44.6944 34.3544 44.7203C33.973 44.7464 33.612 44.5454 33.4331 44.2075L27.2727 32.5712C27.0738 32.1956 27.1432 31.7344 27.4437 31.4338L43.8714 15.0062C44.1926 14.685 44.6938 14.6304 45.0767 14.8747ZM42.1407 19.4749L29.3183 32.2973L34.1266 41.3798L42.1407 19.4749Z" fill="white"/>
</svg>
