<svg width="32" height="33" viewBox="0 0 32 33" fill="none" xmlns="http://www.w3.org/2000/svg">
<rect y="0.101807" width="32" height="32" rx="16" fill="#FF9B00"/>
<path d="M16.0017 8.23215C18.5668 8.23215 18.8679 8.24358 19.8818 8.28932C20.8195 8.33125 21.3264 8.48752 21.6656 8.62093C22.1154 8.79626 22.4355 9.00208 22.771 9.33749C23.1064 9.67291 23.316 9.99308 23.4875 10.4428C23.6171 10.7821 23.7772 11.289 23.8191 12.2266C23.8649 13.2405 23.8763 13.5416 23.8763 16.1068C23.8763 18.672 23.8649 18.9731 23.8191 19.9869C23.7772 20.9246 23.6209 21.4315 23.4875 21.7707C23.3122 22.2205 23.1064 22.5407 22.771 22.8761C22.4355 23.2115 22.1154 23.4211 21.6656 23.5927C21.3264 23.7222 20.8195 23.8823 19.8818 23.9243C18.8679 23.97 18.5668 23.9814 16.0017 23.9814C13.4365 23.9814 13.1354 23.97 12.1215 23.9243C11.1839 23.8823 10.6769 23.7261 10.3377 23.5927C9.88795 23.4173 9.56778 23.2115 9.23237 22.8761C8.89695 22.5407 8.68732 22.2205 8.5158 21.7707C8.3862 21.4315 8.22612 20.9246 8.18419 19.9869C8.13845 18.9731 8.12702 18.672 8.12702 16.1068C8.12702 13.5416 8.13845 13.2405 8.18419 12.2266C8.22612 11.289 8.38239 10.7821 8.5158 10.4428C8.69113 9.99308 8.89695 9.67291 9.23237 9.33749C9.56778 9.00208 9.88795 8.79244 10.3377 8.62093C10.6769 8.49133 11.1839 8.33125 12.1215 8.28932C13.1354 8.23977 13.4403 8.23215 16.0017 8.23215ZM16.0017 6.50171C13.3946 6.50171 13.0668 6.51314 12.0415 6.55888C11.02 6.60462 10.3225 6.76852 9.71262 7.00483C9.07991 7.24877 8.54629 7.58037 8.01267 8.11399C7.47906 8.64761 7.15126 9.18503 6.90351 9.81394C6.6672 10.4238 6.5033 11.1213 6.45756 12.1466C6.41183 13.1681 6.40039 13.4959 6.40039 16.103C6.40039 18.7101 6.41183 19.0379 6.45756 20.0632C6.5033 21.0847 6.6672 21.7822 6.90351 22.3958C7.14745 23.0285 7.47906 23.5622 8.01267 24.0958C8.54629 24.6294 9.08372 24.9572 9.71262 25.2049C10.3225 25.4413 11.02 25.6051 12.0453 25.6509C13.0706 25.6966 13.3946 25.7081 16.0055 25.7081C18.6164 25.7081 18.9404 25.6966 19.9657 25.6509C20.9872 25.6051 21.6847 25.4413 22.2983 25.2049C22.9311 24.961 23.4647 24.6294 23.9983 24.0958C24.5319 23.5622 24.8597 23.0247 25.1074 22.3958C25.3438 21.786 25.5077 21.0885 25.5534 20.0632C25.5991 19.0379 25.6106 18.7139 25.6106 16.103C25.6106 13.4921 25.5991 13.1681 25.5534 12.1428C25.5077 11.1213 25.3438 10.4238 25.1074 9.81013C24.8635 9.17741 24.5319 8.64379 23.9983 8.11018C23.4647 7.57656 22.9272 7.24877 22.2983 7.00102C21.6885 6.76471 20.991 6.60081 19.9657 6.55507C18.9366 6.51314 18.6088 6.50171 16.0017 6.50171Z" fill="white"/>
<path d="M16.0017 8.23215C18.5668 8.23215 18.8679 8.24358 19.8818 8.28932C20.8195 8.33125 21.3264 8.48752 21.6656 8.62093C22.1154 8.79626 22.4355 9.00208 22.771 9.33749C23.1064 9.67291 23.316 9.99308 23.4875 10.4428C23.6171 10.7821 23.7772 11.289 23.8191 12.2266C23.8649 13.2405 23.8763 13.5416 23.8763 16.1068C23.8763 18.672 23.8649 18.9731 23.8191 19.9869C23.7772 20.9246 23.6209 21.4315 23.4875 21.7707C23.3122 22.2205 23.1064 22.5407 22.771 22.8761C22.4355 23.2115 22.1154 23.4211 21.6656 23.5927C21.3264 23.7222 20.8195 23.8823 19.8818 23.9243C18.8679 23.97 18.5668 23.9814 16.0017 23.9814C13.4365 23.9814 13.1354 23.97 12.1215 23.9243C11.1839 23.8823 10.6769 23.7261 10.3377 23.5927C9.88795 23.4173 9.56778 23.2115 9.23237 22.8761C8.89695 22.5407 8.68732 22.2205 8.5158 21.7707C8.3862 21.4315 8.22612 20.9246 8.18419 19.9869C8.13845 18.9731 8.12702 18.672 8.12702 16.1068C8.12702 13.5416 8.13845 13.2405 8.18419 12.2266C8.22612 11.289 8.38239 10.7821 8.5158 10.4428C8.69113 9.99308 8.89695 9.67291 9.23237 9.33749C9.56778 9.00208 9.88795 8.79244 10.3377 8.62093C10.6769 8.49133 11.1839 8.33125 12.1215 8.28932C13.1354 8.23977 13.4403 8.23215 16.0017 8.23215Z" fill="white"/>
<path d="M16.0024 11.1748C13.281 11.1748 11.0703 13.3817 11.0703 16.1069C11.0703 18.8322 13.2772 21.0391 16.0024 21.0391C18.7277 21.0391 20.9346 18.8322 20.9346 16.1069C20.9346 13.3817 18.7277 11.1748 16.0024 11.1748ZM16.0024 19.3048C14.2339 19.3048 12.8008 17.8717 12.8008 16.1031C12.8008 14.3346 14.2339 12.9014 16.0024 12.9014C17.771 12.9014 19.2041 14.3346 19.2041 16.1031C19.2041 17.8717 17.771 19.3048 16.0024 19.3048Z" fill="#FF9B00"/>
<path d="M21.1296 12.1276C21.7653 12.1276 22.2807 11.6123 22.2807 10.9765C22.2807 10.3408 21.7653 9.82544 21.1296 9.82544C20.4939 9.82544 19.9785 10.3408 19.9785 10.9765C19.9785 11.6123 20.4939 12.1276 21.1296 12.1276Z" fill="#FF9B00"/>
</svg>
