<svg width="32" height="33" viewBox="0 0 32 33" fill="none" xmlns="http://www.w3.org/2000/svg">
<rect y="0.101807" width="32" height="32" rx="16" fill="#FF9B00"/>
<path d="M23.5 7.30176H8.49844C8.15387 7.30176 7.8234 7.43864 7.57975 7.68229C7.3361 7.92594 7.19922 8.2564 7.19922 8.60098V23.6025C7.19922 23.9471 7.3361 24.2776 7.57975 24.5212C7.8234 24.7649 8.15387 24.9018 8.49844 24.9018H23.5C23.8446 24.9018 24.175 24.7649 24.4187 24.5212C24.6623 24.2776 24.7992 23.9471 24.7992 23.6025V8.60098C24.7992 8.2564 24.6623 7.92594 24.4187 7.68229C24.175 7.43864 23.8446 7.30176 23.5 7.30176ZM12.445 22.2948H9.79889V13.8895H12.445V22.2948ZM11.1201 12.7248C10.82 12.7231 10.527 12.6325 10.2783 12.4645C10.0296 12.2965 9.83617 12.0585 9.72253 11.7807C9.60889 11.5029 9.58009 11.1977 9.63977 10.9035C9.69946 10.6093 9.84494 10.3394 10.0579 10.1279C10.2708 9.9163 10.5416 9.77255 10.8362 9.71476C11.1307 9.65697 11.4358 9.68773 11.7129 9.80315C11.9899 9.91857 12.2266 10.1135 12.393 10.3633C12.5594 10.6131 12.6481 10.9066 12.6479 11.2068C12.6507 11.4077 12.6131 11.6072 12.5372 11.7933C12.4613 11.9794 12.3487 12.1483 12.2061 12.2899C12.0635 12.4316 11.8939 12.5431 11.7073 12.6178C11.5208 12.6925 11.321 12.7289 11.1201 12.7248ZM22.1983 22.3021H19.5534V17.7102C19.5534 16.356 18.9778 15.938 18.2347 15.938C17.45 15.938 16.68 16.5295 16.68 17.7444V22.3021H14.0339V13.8956H16.5786V15.0604H16.6128C16.8682 14.5434 17.7629 13.6598 19.1281 13.6598C20.6046 13.6598 22.1996 14.5361 22.1996 17.1028L22.1983 22.3021Z" fill="white"/>
</svg>
