<svg width="81" height="38" viewBox="0 0 81 38" fill="none" xmlns="http://www.w3.org/2000/svg">
<rect width="81" height="38" fill="#D8D8D8"/>
<g id="iPhone 13 mini - 1" clip-path="url(#clip0_0_1)">
<rect width="375" height="8501" transform="translate(-24 -33)" fill="#F7F5ED"/>
<g id="Hero" clip-path="url(#clip1_0_1)">
<rect width="375" height="859" transform="translate(-24 -33)" fill="#060919"/>
<g id="Grid">
<g id="Group 36458">
</g>
<g id="Group 36459">
</g>
</g>
<g id="Navbar">
<rect width="375" height="104" transform="translate(-24 -33)" fill="#060919"/>
<g id="Group">
<g id="Group_2">
<path id="Vector" d="M0 0.544434H25.6329V13.3609C25.6329 20.4356 19.8912 26.1774 12.8165 26.1774C5.74178 26.1774 0 20.4356 0 13.3609V0.544434Z" fill="#ED1C24"/>
<path id="Vector_2" d="M7.68945 0.544434H17.9426V13.3609C17.9426 16.1908 15.6459 18.4875 12.816 18.4875C9.98616 18.4875 7.68945 16.1908 7.68945 13.3609V0.544434Z" fill="#D11C24"/>
<path id="Vector_3" d="M12.816 18.488C15.6474 18.488 17.9426 16.1928 17.9426 13.3615C17.9426 10.5301 15.6474 8.23486 12.816 8.23486C9.9847 8.23486 7.68945 10.5301 7.68945 13.3615C7.68945 16.1928 9.9847 18.488 12.816 18.488Z" fill="#FF9B00"/>
<path id="Vector_4" d="M12.816 37.4558C15.6474 37.4558 17.9426 35.1606 17.9426 32.3292C17.9426 29.4979 15.6474 27.2026 12.816 27.2026C9.9847 27.2026 7.68945 29.4979 7.68945 32.3292C7.68945 35.1606 9.9847 37.4558 12.816 37.4558Z" fill="#FF9B00"/>
</g>
<g id="Group_3">
<path id="Vector_5" d="M27.6816 0.821777H53.3146V13.6382C53.3146 20.7129 47.5728 26.4547 40.4981 26.4547C33.4234 26.4547 27.6816 20.7129 27.6816 13.6382V0.821777Z" fill="#0000FF"/>
<path id="Vector_6" d="M35.3711 0.544434H45.6243V13.3609C45.6243 16.1908 43.3276 18.4875 40.4977 18.4875C37.6678 18.4875 35.3711 16.1908 35.3711 13.3609V0.544434Z" fill="#0000D6"/>
<path id="Vector_7" d="M40.4977 18.488C43.329 18.488 45.6243 16.1928 45.6243 13.3615C45.6243 10.5301 43.329 8.23486 40.4977 8.23486C37.6663 8.23486 35.3711 10.5301 35.3711 13.3615C35.3711 16.1928 37.6663 18.488 40.4977 18.488Z" fill="#FFC700"/>
<path id="Vector_8" d="M40.4977 37.4558C43.329 37.4558 45.6243 35.1606 45.6243 32.3292C45.6243 29.4979 43.329 27.2026 40.4977 27.2026C37.6663 27.2026 35.3711 29.4979 35.3711 32.3292C35.3711 35.1606 37.6663 37.4558 40.4977 37.4558Z" fill="#FFC700"/>
</g>
<g id="Group_4">
<path id="Vector_9" d="M55.3672 0.544434H81.0001V13.3609C81.0001 20.4356 75.2583 26.1774 68.1837 26.1774C61.109 26.1774 55.3672 20.4356 55.3672 13.3609V0.544434Z" fill="#FF9B00"/>
<path id="Vector_10" d="M63.0566 0.544434H73.3098V13.3609C73.3098 16.1908 71.0131 18.4875 68.1832 18.4875C65.3534 18.4875 63.0566 16.1908 63.0566 13.3609V0.544434Z" fill="#FF7B12"/>
<path id="Vector_11" d="M68.1832 18.488C71.0146 18.488 73.3098 16.1928 73.3098 13.3615C73.3098 10.5301 71.0146 8.23486 68.1832 8.23486C65.3519 8.23486 63.0566 10.5301 63.0566 13.3615C63.0566 16.1928 65.3519 18.488 68.1832 18.488Z" fill="#FFC700"/>
<path id="Vector_12" d="M68.1832 37.4558C71.0146 37.4558 73.3098 35.1606 73.3098 32.3292C73.3098 29.4979 71.0146 27.2026 68.1832 27.2026C65.3519 27.2026 63.0566 29.4979 63.0566 32.3292C63.0566 35.1606 65.3519 37.4558 68.1832 37.4558Z" fill="#FFC700"/>
</g>
</g>
</g>
</g>
</g>
<defs>
<clipPath id="clip0_0_1">
<rect width="375" height="8501" fill="white" transform="translate(-24 -33)"/>
</clipPath>
<clipPath id="clip1_0_1">
<rect width="375" height="859" fill="white" transform="translate(-24 -33)"/>
</clipPath>
</defs>
</svg>
