<svg width="61" height="60" viewBox="0 0 61 60" fill="none" xmlns="http://www.w3.org/2000/svg">
<rect x="0.523438" width="59.9537" height="60" rx="29.9769" fill="#FF9B00"/>
<path d="M24.4255 27.5443H18.1268C17.9674 28.3412 17.8848 29.1618 17.8848 30C17.8848 31.523 18.1563 32.9811 18.6581 34.3329H24.3783C24.1953 32.1901 24.213 29.9115 24.4255 27.5443ZM19.8269 36.6942C21.2732 38.9788 23.4397 40.7792 26.0016 41.771C25.4054 40.1948 24.9568 38.4947 24.6616 36.6942H19.8269ZM32.0347 17.4439C31.5743 17.3908 31.102 17.3672 30.6297 17.3672C30.0512 17.3672 29.4786 17.4085 28.9237 17.4793C28.7289 18.052 27.7077 21.1039 27.0937 25.183H34.4019C33.6817 21.5112 32.5365 18.6187 32.0347 17.4439ZM36.7986 25.183H42.4007C41.0194 21.8713 38.2567 19.2621 34.8269 18.0697C35.4467 19.7226 36.2437 22.196 36.7868 25.1299C36.7927 25.1476 36.7986 25.1653 36.7986 25.183ZM18.847 25.183H24.7029C25.1339 22.1488 25.7832 19.6517 26.226 18.1405C22.8907 19.3625 20.2047 21.9304 18.847 25.183ZM43.1268 27.5443H37.1587C37.4302 29.8229 37.4715 32.0307 37.2826 34.1204L37.2649 34.3329H42.5955C43.0973 32.9811 43.3688 31.523 43.3688 30C43.3688 29.1618 43.2862 28.3412 43.1268 27.5443ZM28.8883 42.5148C29.455 42.5915 30.0394 42.6328 30.6297 42.6328C31.2024 42.6328 31.7691 42.5915 32.324 42.5207C33.4042 40.6376 34.0949 38.66 34.5081 36.6942H27.0642C27.4125 38.6718 27.991 40.6494 28.8883 42.5148ZM26.7986 27.5443C26.6038 29.5868 26.5329 31.9185 26.7514 34.3329H34.88C35.1398 31.9244 35.0394 29.5927 34.7797 27.5443H26.7986ZM35.3641 41.7296C37.8789 40.7261 39.9981 38.9492 41.4267 36.6942H36.9225C36.5861 38.4652 36.0666 40.1476 35.3641 41.7296Z" fill="#FF9B00"/>
<path d="M41.3027 19.392C38.4514 16.5584 34.6557 15 30.6238 15C26.5919 15 22.8021 16.5584 19.9508 19.392C17.0937 22.2255 15.5234 25.9917 15.5234 30C15.5234 34.0083 17.0937 37.7745 19.9508 40.608C22.8021 43.4357 26.5919 45 30.6238 45C34.6557 45 38.4455 43.4416 41.2968 40.608C44.1539 37.7745 45.7241 34.0083 45.7241 30C45.7241 25.9917 44.1539 22.2255 41.3027 19.392ZM42.4066 25.183H36.8044C36.7985 25.1653 36.7985 25.1476 36.7926 25.1299C36.2495 22.196 35.4526 19.7285 34.8328 18.0697C38.2625 19.2621 41.0252 21.8713 42.4066 25.183ZM28.9178 17.4793C29.4786 17.4026 30.0453 17.3672 30.6238 17.3672C31.1019 17.3672 31.5683 17.3967 32.0287 17.4439C32.5364 18.6187 33.6757 21.5112 34.3959 25.183H27.0878C27.7017 21.098 28.723 18.046 28.9178 17.4793ZM17.8847 30C17.8847 29.1617 17.9674 28.3412 18.1267 27.5443H24.4254C24.207 29.9115 24.1893 32.1901 24.3723 34.3329H18.658C18.1563 32.9811 17.8847 31.523 17.8847 30ZM19.8269 36.6942H24.6675C24.9626 38.4947 25.4054 40.1948 26.0075 41.771C23.4396 40.7792 21.2731 38.9787 19.8269 36.6942ZM24.7029 25.183H18.8469C20.2047 21.9303 22.8906 19.3625 26.2259 18.1405C25.7832 19.6517 25.1338 22.1488 24.7029 25.183ZM32.3239 42.5207C31.769 42.5915 31.2023 42.6328 30.6297 42.6328C30.0394 42.6328 29.4609 42.5915 28.8883 42.5148C27.991 40.6493 27.4125 38.6718 27.0701 36.6942H34.514C34.0949 38.66 33.3983 40.6375 32.3239 42.5207ZM34.88 34.3329H26.7513C26.5329 31.9185 26.6037 29.5868 26.7985 27.5443H34.7796C35.0394 29.5927 35.1397 31.9244 34.88 34.3329ZM35.364 41.7296C36.0606 40.1535 36.586 38.4711 36.9225 36.6942H41.4266C40.004 38.9492 37.8788 40.7261 35.364 41.7296ZM37.2649 34.3329L37.2826 34.1204C37.4715 32.0307 37.4302 29.8229 37.1586 27.5443H43.1267C43.2861 28.3412 43.3688 29.1617 43.3688 30C43.3688 31.523 43.0972 32.9811 42.5955 34.3329H37.2649Z" fill="white"/>
</svg>
