<svg width="61" height="60" viewBox="0 0 61 60" fill="none" xmlns="http://www.w3.org/2000/svg">
<rect x="0.523438" width="59.9537" height="60" rx="29.9769" fill="#ED1C24"/>
<path d="M14.5234 18.8V41.2C14.5234 41.9426 14.8184 42.6548 15.3435 43.1799C15.8686 43.705 16.5808 44 17.3234 44H45.3234C45.6947 44 46.0508 43.8525 46.3134 43.59C46.5759 43.3274 46.7234 42.9713 46.7234 42.6V23C46.7234 22.6287 46.5759 22.2726 46.3134 22.0101C46.0508 21.7475 45.6947 21.6 45.3234 21.6H17.3234C16.5808 21.6 15.8686 21.305 15.3435 20.7799C14.8184 20.2548 14.5234 19.5426 14.5234 18.8ZM14.5234 18.8C14.5234 18.0574 14.8184 17.3452 15.3435 16.8201C15.8686 16.295 16.5808 16 17.3234 16H41.1234" stroke="white" stroke-width="2.5" stroke-linecap="round" stroke-linejoin="round"/>
<path d="M39.0238 34.8992C40.1836 34.8992 41.1238 33.959 41.1238 32.7992C41.1238 31.6394 40.1836 30.6992 39.0238 30.6992C37.864 30.6992 36.9238 31.6394 36.9238 32.7992C36.9238 33.959 37.864 34.8992 39.0238 34.8992Z" fill="white"/>
</svg>
