<svg width="32" height="33" viewBox="0 0 32 33" fill="none" xmlns="http://www.w3.org/2000/svg">
<rect y="0.101807" width="32" height="32" rx="16" fill="#FF9B00"/>
<path d="M13.0718 24.5417C20.1678 24.5417 24.0478 18.6617 24.0478 13.5657C24.0478 13.3977 24.0478 13.2297 24.0398 13.0697C24.7918 12.5257 25.4478 11.8457 25.9678 11.0697C25.2798 11.3737 24.5358 11.5817 23.7518 11.6777C24.5518 11.1977 25.1598 10.4457 25.4478 9.54172C24.7038 9.98172 23.8798 10.3017 22.9998 10.4777C22.2958 9.72572 21.2958 9.26172 20.1838 9.26172C18.0558 9.26172 16.3278 10.9897 16.3278 13.1177C16.3278 13.4217 16.3598 13.7177 16.4318 13.9977C13.2238 13.8377 10.3838 12.3017 8.47978 9.96572C8.15178 10.5337 7.95978 11.1977 7.95978 11.9017C7.95978 13.2377 8.63978 14.4217 9.67978 15.1097C9.04778 15.0937 8.45578 14.9177 7.93578 14.6297C7.93578 14.6457 7.93578 14.6617 7.93578 14.6777C7.93578 16.5497 9.26378 18.1017 11.0318 18.4617C10.7118 18.5497 10.3678 18.5977 10.0158 18.5977C9.76778 18.5977 9.52778 18.5737 9.28778 18.5257C9.77578 20.0617 11.1998 21.1737 12.8878 21.2057C11.5678 22.2377 9.90378 22.8537 8.09578 22.8537C7.78378 22.8537 7.47978 22.8377 7.17578 22.7977C8.86378 23.9017 10.8958 24.5417 13.0718 24.5417Z" fill="white"/>
</svg>
