<svg width="32" height="33" viewBox="0 0 32 33" fill="none" xmlns="http://www.w3.org/2000/svg">
<rect y="0.101807" width="32" height="32" rx="16" fill="#FF9B00"/>
<path d="M26.9587 10.6061C26.6951 9.62701 25.9231 8.85499 24.944 8.59138C23.1551 8.10181 15.9999 8.10181 15.9999 8.10181C15.9999 8.10181 8.84464 8.10181 7.05582 8.57255C6.09551 8.83616 5.30467 9.62701 5.04105 10.6061C4.57031 12.395 4.57031 16.1044 4.57031 16.1044C4.57031 16.1044 4.57031 19.8327 5.04105 21.6026C5.30467 22.5818 6.07668 23.3538 7.05582 23.6174C8.86347 24.107 15.9999 24.107 15.9999 24.107C15.9999 24.107 23.1551 24.107 24.944 23.6362C25.9231 23.3726 26.6951 22.6006 26.9587 21.6215C27.4295 19.8327 27.4295 16.1232 27.4295 16.1232C27.4295 16.1232 27.4483 12.395 26.9587 10.6061Z" fill="white"/>
<path d="M13.7207 19.5315L19.6709 16.1045L13.7207 12.6775V19.5315Z" fill="#FF9B00"/>
</svg>
