<svg width="122" height="56" viewBox="0 0 122 56" fill="none" xmlns="http://www.w3.org/2000/svg">
<rect width="122" height="56" fill="#D8D8D8"/>
<g id="Landing - Digital Agency" clip-path="url(#clip0_0_1)">
<rect width="1600" height="7097" transform="translate(-151 -48)" fill="#F7F5ED"/>
<g id="Hero" clip-path="url(#clip1_0_1)">
<rect width="1600" height="1055" transform="translate(-151 -48)" fill="#060919"/>
<g id="Frame 1000001715" clip-path="url(#clip2_0_1)">
<g id="Grid">
<g id="Group 36458">
<line id="Line 3" x1="116.166" y1="-43" x2="116.166" y2="855" stroke="white" stroke-opacity="0.2"/>
</g>
<g id="Group 36459">
</g>
</g>
</g>
<g id="Component 3">
<rect width="1600" height="152" transform="translate(-152 -48)" fill="#060919"/>
<g id="Group">
<g id="Group_2">
<path id="Vector" d="M0 0.202637H38.6076V19.5065C38.6076 30.1622 29.9595 38.8103 19.3038 38.8103C8.64811 38.8103 0 30.1622 0 19.5065V0.202637Z" fill="#ED1C24"/>
<path id="Vector_2" d="M11.582 0.202637H27.0251V19.5065C27.0251 23.7687 23.5658 27.228 19.3036 27.228C15.0413 27.228 11.582 23.7687 11.582 19.5065V0.202637Z" fill="#D11C24"/>
<path id="Vector_3" d="M19.3036 27.2287C23.568 27.2287 27.0251 23.7717 27.0251 19.5072C27.0251 15.2427 23.568 11.7856 19.3036 11.7856C15.0391 11.7856 11.582 15.2427 11.582 19.5072C11.582 23.7717 15.0391 27.2287 19.3036 27.2287Z" fill="#FF9B00"/>
<path id="Vector_4" d="M19.3036 55.7975C23.568 55.7975 27.0251 52.3405 27.0251 48.076C27.0251 43.8115 23.568 40.3545 19.3036 40.3545C15.0391 40.3545 11.582 43.8115 11.582 48.076C11.582 52.3405 15.0391 55.7975 19.3036 55.7975Z" fill="#FF9B00"/>
</g>
<g id="Group_3">
<path id="Vector_5" d="M41.6953 0.47998H80.3029V19.7838C80.3029 30.4395 71.6548 39.0876 60.9991 39.0876C50.3434 39.0876 41.6953 30.4395 41.6953 19.7838V0.47998Z" fill="#0000FF"/>
<path id="Vector_6" d="M53.2773 0.202637H68.7204V19.5065C68.7204 23.7687 65.2612 27.228 60.9989 27.228C56.7366 27.228 53.2773 23.7687 53.2773 19.5065V0.202637Z" fill="#0000D6"/>
<path id="Vector_7" d="M60.9989 27.2287C65.2634 27.2287 68.7204 23.7717 68.7204 19.5072C68.7204 15.2427 65.2634 11.7856 60.9989 11.7856C56.7344 11.7856 53.2773 15.2427 53.2773 19.5072C53.2773 23.7717 56.7344 27.2287 60.9989 27.2287Z" fill="#FFC700"/>
<path id="Vector_8" d="M60.9989 55.7975C65.2634 55.7975 68.7204 52.3405 68.7204 48.076C68.7204 43.8115 65.2634 40.3545 60.9989 40.3545C56.7344 40.3545 53.2773 43.8115 53.2773 48.076C53.2773 52.3405 56.7344 55.7975 60.9989 55.7975Z" fill="#FFC700"/>
</g>
<g id="Group_4">
<path id="Vector_9" d="M83.3926 0.202637H122V19.5065C122 30.1622 113.352 38.8103 102.696 38.8103C92.0407 38.8103 83.3926 30.1622 83.3926 19.5065V0.202637Z" fill="#FF9B00"/>
<path id="Vector_10" d="M94.9746 0.202637H110.418V19.5065C110.418 23.7687 106.958 27.228 102.696 27.228C98.4339 27.228 94.9746 23.7687 94.9746 19.5065V0.202637Z" fill="#FF7B12"/>
<path id="Vector_11" d="M102.696 27.2287C106.961 27.2287 110.418 23.7717 110.418 19.5072C110.418 15.2427 106.961 11.7856 102.696 11.7856C98.4317 11.7856 94.9746 15.2427 94.9746 19.5072C94.9746 23.7717 98.4317 27.2287 102.696 27.2287Z" fill="#FFC700"/>
<path id="Vector_12" d="M102.696 55.7975C106.961 55.7975 110.418 52.3405 110.418 48.076C110.418 43.8115 106.961 40.3545 102.696 40.3545C98.4317 40.3545 94.9746 43.8115 94.9746 48.076C94.9746 52.3405 98.4317 55.7975 102.696 55.7975Z" fill="#FFC700"/>
</g>
</g>
</g>
</g>
</g>
<defs>
<clipPath id="clip0_0_1">
<rect width="1600" height="7097" fill="white" transform="translate(-151 -48)"/>
</clipPath>
<clipPath id="clip1_0_1">
<rect width="1600" height="1055" fill="white" transform="translate(-151 -48)"/>
</clipPath>
<clipPath id="clip2_0_1">
<rect width="1602" height="950" fill="white" transform="translate(-152 -48)"/>
</clipPath>
</defs>
</svg>
